<svg width="333" height="483" viewBox="0 0 333 483" fill="none" xmlns="http://www.w3.org/2000/svg">
<rect width="330" height="236" rx="8" fill="#292E3D"/>
<path d="M27.7148 33.3777C27.1602 33.3777 26.6562 33.2742 26.2031 33.0671C25.7539 32.8562 25.4004 32.5671 25.1426 32.2C24.8848 31.8328 24.7461 31.4187 24.7266 30.9578H26.209C26.2324 31.1843 26.3125 31.3875 26.4492 31.5671C26.5859 31.7468 26.7656 31.8875 26.9883 31.989C27.2109 32.0906 27.4531 32.1414 27.7148 32.1414C28.0273 32.1414 28.3066 32.071 28.5527 31.9304C28.7988 31.7898 28.9922 31.5964 29.1328 31.3503C29.2734 31.1042 29.3438 30.825 29.3438 30.5125C29.3438 30.1921 29.2715 29.907 29.127 29.657C28.9863 29.407 28.7891 29.2117 28.5352 29.071C28.2812 28.9265 27.9922 28.8542 27.668 28.8542C27.332 28.8503 27.0469 28.907 26.8125 29.0242C26.5781 29.1414 26.3945 29.3269 26.2617 29.5808H24.8496L25.3594 24.7761H30.3691V26.0535H26.6191L26.3613 28.3093H26.4316C26.6035 28.1179 26.8359 27.9617 27.1289 27.8406C27.4258 27.7195 27.7441 27.6589 28.084 27.6589C28.6035 27.6589 29.0723 27.78 29.4902 28.0222C29.9082 28.2605 30.2344 28.5945 30.4688 29.0242C30.707 29.45 30.8262 29.9324 30.8262 30.4714C30.8262 31.03 30.6934 31.53 30.4277 31.9714C30.1621 32.4128 29.793 32.7585 29.3203 33.0085C28.8516 33.2546 28.3164 33.3777 27.7148 33.3777ZM35.2383 33.3777C34.5586 33.3777 33.9746 33.2078 33.4863 32.8679C33.002 32.5281 32.6289 32.032 32.3672 31.3796C32.1094 30.7234 31.9805 29.9363 31.9805 29.0183C31.9805 28.1003 32.1094 27.3152 32.3672 26.6628C32.6289 26.0105 33.0039 25.5144 33.4922 25.1746C33.9805 24.8308 34.5625 24.6589 35.2383 24.6589C35.9141 24.6589 36.4961 24.8308 36.9844 25.1746C37.4766 25.5144 37.8516 26.0125 38.1094 26.6687C38.3672 27.321 38.4961 28.1042 38.4961 29.0183C38.4961 29.9402 38.3672 30.7273 38.1094 31.3796C37.8555 32.032 37.4824 32.5281 36.9902 32.8679C36.502 33.2078 35.918 33.3777 35.2383 33.3777ZM35.2383 32.0945C35.5938 32.0945 35.9004 31.9792 36.1582 31.7488C36.416 31.5144 36.6133 31.1687 36.75 30.7117C36.8906 30.2507 36.959 29.6863 36.9551 29.0183C36.9551 28.3542 36.8848 27.7917 36.7441 27.3308C36.6074 26.866 36.4102 26.5164 36.1523 26.282C35.8984 26.0437 35.5938 25.9246 35.2383 25.9246C34.8828 25.9246 34.5762 26.0437 34.3184 26.282C34.0645 26.5164 33.8672 26.866 33.7266 27.3308C33.5859 27.7917 33.5156 28.3542 33.5156 29.0183C33.5156 29.6863 33.584 30.2507 33.7207 30.7117C33.8613 31.1687 34.0605 31.5144 34.3184 31.7488C34.5762 31.9792 34.8828 32.0945 35.2383 32.0945ZM41.8594 28.9187C41.4648 28.9148 41.127 28.823 40.8457 28.6433C40.5684 28.4597 40.3555 28.2039 40.207 27.8757C40.0625 27.5437 39.9902 27.1609 39.9902 26.7273C39.9902 26.2976 40.0645 25.9167 40.2129 25.5847C40.3652 25.2527 40.582 24.9949 40.8633 24.8113C41.1445 24.6277 41.4766 24.5359 41.8594 24.5359C42.2617 24.5359 42.6035 24.6277 42.8848 24.8113C43.166 24.991 43.377 25.2468 43.5176 25.5789C43.6582 25.907 43.7285 26.2898 43.7285 26.7273C43.7285 27.1648 43.6562 27.5476 43.5117 27.8757C43.3672 28.2039 43.1543 28.4597 42.873 28.6433C42.5957 28.823 42.2578 28.9148 41.8594 28.9187ZM41.8594 27.9753C42.0352 27.9753 42.1816 27.9246 42.2988 27.823C42.416 27.7175 42.5039 27.573 42.5625 27.3894C42.6211 27.2019 42.6504 26.9812 42.6504 26.7273C42.6504 26.4695 42.6211 26.2468 42.5625 26.0593C42.5078 25.8718 42.4219 25.7273 42.3047 25.6257C42.1875 25.5203 42.0391 25.4714 41.8594 25.4792C41.6953 25.4753 41.5527 25.5261 41.4316 25.6316C41.3145 25.7371 41.2266 25.8835 41.168 26.071C41.1094 26.2585 41.0801 26.4773 41.0801 26.7273C41.0801 26.9773 41.1094 27.196 41.168 27.3835C41.2266 27.571 41.3145 27.7175 41.4316 27.823C41.5527 27.9246 41.6953 27.9753 41.8594 27.9753ZM47.4082 33.489C47.0137 33.4851 46.6738 33.3933 46.3887 33.2136C46.1074 33.03 45.8965 32.7742 45.7559 32.446C45.6152 32.1179 45.5449 31.7371 45.5449 31.3035C45.5449 30.8699 45.6172 30.4871 45.7617 30.155C45.9102 29.823 46.125 29.5652 46.4062 29.3816C46.6875 29.198 47.0215 29.1062 47.4082 29.1062C47.8027 29.1062 48.1406 29.198 48.4219 29.3816C48.707 29.5613 48.9199 29.8171 49.0605 30.1492C49.2051 30.4812 49.2773 30.866 49.2773 31.3035C49.2773 31.7371 49.2031 32.1179 49.0547 32.446C48.9102 32.7742 48.6973 33.03 48.416 33.2136C48.1348 33.3933 47.7988 33.4851 47.4082 33.489ZM47.4082 32.5457C47.584 32.5457 47.7305 32.4949 47.8477 32.3933C47.9648 32.2917 48.0508 32.1492 48.1055 31.9656C48.1602 31.7781 48.1875 31.5574 48.1875 31.3035C48.1875 31.0417 48.1602 30.8171 48.1055 30.6296C48.0508 30.4421 47.9668 30.2976 47.8535 30.196C47.7402 30.0906 47.5918 30.0417 47.4082 30.0496C47.2402 30.0496 47.0977 30.1023 46.9805 30.2078C46.8633 30.3132 46.7734 30.4597 46.7109 30.6472C46.6484 30.8347 46.6172 31.0535 46.6172 31.3035C46.6172 31.5574 46.6484 31.7781 46.7109 31.9656C46.7734 32.1492 46.8613 32.2917 46.9746 32.3933C47.0918 32.4949 47.2363 32.5457 47.4082 32.5457ZM46.9102 24.7761H48.1055L42.2695 33.2605H41.0742L46.9102 24.7761ZM62.2148 34.321H60.8965V23.7097H62.2148V34.321ZM56.5078 24.4832C57.0391 24.4832 57.5137 24.6375 57.9316 24.946C58.3496 25.2507 58.6758 25.6863 58.9102 26.2527C59.1445 26.8152 59.2617 27.4714 59.2617 28.2214C59.2617 28.9753 59.1445 29.6355 58.9102 30.2019C58.6758 30.7644 58.3496 31.2 57.9316 31.5085C57.5137 31.8171 57.0391 31.9714 56.5078 31.9714C55.9727 31.9714 55.4961 31.8171 55.0781 31.5085C54.6602 31.2 54.332 30.7644 54.0938 30.2019C53.8594 29.6355 53.7422 28.9753 53.7422 28.2214C53.7422 27.4714 53.8594 26.8152 54.0938 26.2527C54.332 25.6863 54.6602 25.2507 55.0781 24.946C55.4961 24.6375 55.9727 24.4832 56.5078 24.4832ZM56.5078 25.655C56.2109 25.6511 55.9473 25.7527 55.7168 25.9597C55.4902 26.1628 55.3145 26.4578 55.1895 26.8445C55.0645 27.2312 55.002 27.6902 55.002 28.2214C55.002 28.7527 55.0645 29.2136 55.1895 29.6042C55.3145 29.991 55.4902 30.2859 55.7168 30.489C55.9473 30.6882 56.2109 30.7878 56.5078 30.7878C56.8047 30.7878 57.0664 30.6882 57.293 30.489C57.5195 30.2859 57.6953 29.991 57.8203 29.6042C57.9453 29.2136 58.0078 28.7527 58.0078 28.2214C58.0078 27.6902 57.9453 27.2312 57.8203 26.8445C57.6953 26.4578 57.5195 26.1628 57.293 25.9597C57.0703 25.7527 56.8086 25.6511 56.5078 25.655ZM67.2891 25.2742C67.2891 25.9734 67.1758 26.6257 66.9492 27.2312C66.7227 27.8367 66.3906 28.364 65.9531 28.8132C65.5195 29.2585 64.9883 29.5945 64.3594 29.821L63.6562 28.7957C64.2109 28.6003 64.6797 28.325 65.0625 27.9695C65.4492 27.6101 65.7383 27.2 65.9297 26.739C66.125 26.2742 66.2227 25.7859 66.2227 25.2742V24.2664H67.2891V25.2742ZM67.5234 25.3972C67.5234 25.8464 67.6191 26.2761 67.8105 26.6863C68.0059 27.0964 68.2891 27.4597 68.6602 27.7761C69.0352 28.0925 69.4863 28.3367 70.0137 28.5085L69.3164 29.5222C68.7188 29.3191 68.2051 29.0144 67.7754 28.6082C67.3457 28.198 67.0195 27.7175 66.7969 27.1667C66.5781 26.616 66.4688 26.0261 66.4688 25.3972V24.2664H67.5234V25.3972ZM72.1289 30.0437H70.8281V23.7097H72.1289V30.0437ZM73.6113 27.366H71.7598V26.282H73.6113V27.366ZM68.6836 30.2781C69.4102 30.2781 70.0391 30.3562 70.5703 30.5125C71.1055 30.6687 71.5156 30.8972 71.8008 31.198C72.0859 31.4949 72.2285 31.8542 72.2285 32.2761C72.2285 32.698 72.0859 33.0593 71.8008 33.3601C71.5156 33.6648 71.1074 33.8953 70.5762 34.0515C70.0449 34.2078 69.4141 34.2859 68.6836 34.2859C67.9531 34.2859 67.3164 34.2078 66.7734 34.0515C66.2344 33.8953 65.8184 33.6648 65.5254 33.3601C65.2363 33.0593 65.0918 32.698 65.0918 32.2761C65.0918 31.8542 65.2363 31.4949 65.5254 31.198C65.8184 30.8972 66.2344 30.6687 66.7734 30.5125C67.3164 30.3562 67.9531 30.2781 68.6836 30.2781ZM68.6836 31.3035C68.2031 31.3035 67.791 31.3406 67.4473 31.4148C67.1074 31.489 66.8477 31.6003 66.668 31.7488C66.4922 31.8933 66.4043 32.0691 66.4043 32.2761C66.4043 32.491 66.4922 32.6726 66.668 32.821C66.8477 32.9656 67.1055 33.075 67.4414 33.1492C67.7812 33.2234 68.1953 33.2625 68.6836 33.2664C69.1758 33.2625 69.5898 33.2234 69.9258 33.1492C70.2617 33.075 70.5156 32.9656 70.6875 32.821C70.8594 32.6726 70.9453 32.491 70.9453 32.2761C70.9453 32.0652 70.8574 31.8875 70.6816 31.7429C70.5098 31.5984 70.2539 31.489 69.9141 31.4148C69.5742 31.3406 69.1641 31.3035 68.6836 31.3035ZM77.584 24.4363C78.1387 24.4363 78.6367 24.5457 79.0781 24.7644C79.5195 24.9832 79.8652 25.2878 80.1152 25.6785C80.3652 26.0652 80.4902 26.5066 80.4902 27.0027C80.4902 27.4988 80.3652 27.9421 80.1152 28.3328C79.8652 28.7195 79.5195 29.0222 79.0781 29.241C78.6406 29.4597 78.1426 29.5691 77.584 29.5691C77.0371 29.5691 76.541 29.4597 76.0957 29.241C75.6504 29.0222 75.3008 28.7195 75.0469 28.3328C74.7969 27.9421 74.6719 27.4988 74.6719 27.0027C74.6719 26.5066 74.7969 26.0652 75.0469 25.6785C75.3008 25.2878 75.6504 24.9832 76.0957 24.7644C76.541 24.5457 77.0371 24.4363 77.584 24.4363ZM77.584 25.5671C77.2754 25.5671 76.998 25.6257 76.752 25.7429C76.5059 25.8601 76.3125 26.0281 76.1719 26.2468C76.0312 26.4617 75.9609 26.7136 75.9609 27.0027C75.9609 27.2917 76.0312 27.5437 76.1719 27.7585C76.3125 27.9734 76.5059 28.1414 76.752 28.2625C76.998 28.3796 77.2754 28.4382 77.584 28.4382C77.9004 28.4382 78.1816 28.3796 78.4277 28.2625C78.6738 28.1414 78.8652 27.9734 79.002 27.7585C79.1426 27.5437 79.2129 27.2917 79.2129 27.0027C79.2129 26.7136 79.1426 26.4617 79.002 26.2468C78.8652 26.0281 78.6738 25.8601 78.4277 25.7429C78.1816 25.6257 77.9004 25.5671 77.584 25.5671ZM82.9629 34.321H81.6738V23.7097H82.9629V34.321ZM74.1914 31.0339C75.0586 31.03 75.8438 31.0203 76.5469 31.0046C77.25 30.989 77.998 30.9578 78.791 30.9109C79.584 30.8601 80.332 30.7839 81.0352 30.6824L81.1348 31.6316C80.4043 31.7644 79.6465 31.866 78.8613 31.9363C78.0762 32.0066 77.3379 32.0515 76.6465 32.071C75.959 32.0906 75.1953 32.1003 74.3555 32.1003L74.1914 31.0339ZM90.3457 24.2195C90.8887 24.2195 91.375 24.325 91.8047 24.5359C92.2344 24.7429 92.5703 25.0339 92.8125 25.4089C93.0547 25.7839 93.1758 26.2117 93.1758 26.6921C93.1758 27.1765 93.0547 27.6101 92.8125 27.9929C92.5703 28.3718 92.2344 28.6687 91.8047 28.8835C91.375 29.0945 90.8887 29.2 90.3457 29.2C89.8066 29.2 89.3223 29.0945 88.8926 28.8835C88.4629 28.6687 88.125 28.3718 87.8789 27.9929C87.6328 27.6101 87.5098 27.1765 87.5098 26.6921C87.5098 26.2117 87.6328 25.7839 87.8789 25.4089C88.125 25.0339 88.4629 24.7429 88.8926 24.5359C89.3223 24.325 89.8066 24.2195 90.3457 24.2195ZM90.3457 25.2976C90.0488 25.2937 89.7812 25.3503 89.543 25.4675C89.3047 25.5847 89.1172 25.7488 88.9805 25.9597C88.8477 26.1707 88.7812 26.4148 88.7812 26.6921C88.7812 26.9734 88.8477 27.2195 88.9805 27.4304C89.1172 27.6414 89.3047 27.8054 89.543 27.9226C89.7812 28.0398 90.0488 28.1023 90.3457 28.1101C90.6504 28.1023 90.9199 28.0417 91.1543 27.9285C91.3926 27.8113 91.5781 27.6472 91.7109 27.4363C91.8477 27.2214 91.916 26.9734 91.916 26.6921C91.916 26.4187 91.8477 26.1746 91.7109 25.9597C91.5781 25.7449 91.3926 25.5808 91.1543 25.4675C90.9199 25.3503 90.6504 25.2937 90.3457 25.2976ZM95.7305 29.4519H94.4297V23.7097H95.7305V29.4519ZM97.2129 27.0789H95.3613V26.0066H97.2129V27.0789ZM90.1582 31.0222H94.4297V29.9148H95.7305V34.1687H88.8633V29.9148H90.1582V31.0222ZM94.4297 33.1199V32.03H90.1582V33.1199H94.4297ZM103.201 31.2976H101.918V29.698H103.201V31.2976ZM107.396 30.0027H97.752V28.9597H107.396V30.0027ZM106.219 34.2742H104.912V32.0593H98.8184V31.0164H106.219V34.2742ZM103.201 25.2332H101.918V23.698H103.201V25.2332ZM102.984 25.5378C102.984 26.0886 102.807 26.575 102.451 26.9968C102.096 27.4148 101.59 27.7527 100.934 28.0105C100.277 28.2683 99.5039 28.4363 98.6133 28.5144L98.209 27.5359C98.9824 27.4734 99.6406 27.3484 100.184 27.1609C100.73 26.9695 101.143 26.7351 101.42 26.4578C101.697 26.1765 101.836 25.8699 101.836 25.5378V25.321H102.984V25.5378ZM103.289 25.5378C103.289 25.8699 103.426 26.1765 103.699 26.4578C103.973 26.7351 104.383 26.9695 104.93 27.1609C105.48 27.3484 106.143 27.4734 106.916 27.5359L106.506 28.5144C105.615 28.4363 104.842 28.2683 104.186 28.0105C103.533 27.7527 103.029 27.4148 102.674 26.9968C102.318 26.575 102.141 26.0886 102.141 25.5378V25.321H103.289V25.5378ZM106.447 25.7253H98.7012V24.7058H106.447V25.7253ZM112.945 24.3015C113.688 24.3015 114.357 24.4265 114.955 24.6765C115.557 24.9265 116.029 25.28 116.373 25.7371C116.717 26.1902 116.889 26.7117 116.889 27.3015C116.889 27.8914 116.717 28.4148 116.373 28.8718C116.029 29.3289 115.557 29.6824 114.955 29.9324C114.357 30.1785 113.688 30.3015 112.945 30.3015C112.203 30.3015 111.533 30.1785 110.936 29.9324C110.338 29.6824 109.865 29.3289 109.518 28.8718C109.174 28.4148 109.002 27.8914 109.002 27.3015C109.002 26.7117 109.174 26.1902 109.518 25.7371C109.865 25.28 110.338 24.9265 110.936 24.6765C111.533 24.4265 112.203 24.3015 112.945 24.3015ZM112.945 25.3562C112.43 25.3523 111.969 25.4304 111.562 25.5906C111.156 25.7507 110.838 25.9792 110.607 26.2761C110.381 26.573 110.268 26.9148 110.268 27.3015C110.268 27.6921 110.381 28.0339 110.607 28.3269C110.838 28.616 111.156 28.8406 111.562 29.0007C111.969 29.157 112.43 29.2351 112.945 29.2351C113.457 29.2351 113.914 29.157 114.316 29.0007C114.719 28.8406 115.033 28.616 115.26 28.3269C115.49 28.0339 115.605 27.6921 115.605 27.3015C115.605 26.9148 115.49 26.573 115.26 26.2761C115.033 25.9792 114.719 25.7507 114.316 25.5906C113.914 25.4304 113.457 25.3523 112.945 25.3562ZM117.803 32.9734H108.123V31.907H117.803V32.9734ZM128.174 33.073H118.494V32.0007H128.174V33.073ZM123.949 32.4578H122.666V29.9089H123.949V32.4578ZM127.02 27.8347H120.938V29.7566H119.637V26.8093H125.736V25.4851H119.619V24.4304H127.02V27.8347ZM127.271 30.2664H119.637V29.2058H127.271V30.2664Z" fill="#38A2FF"/>
<path d="M39.0928 47.6619H33.6465V45.4812H39.0928V47.6619ZM42.3799 55.7722H24.623V53.5808H42.3799V55.7722ZM35.1934 54.5476H32.4863V50.1433H35.1934V54.5476ZM40.6504 46.6843C40.6504 47.6726 40.6146 48.6 40.543 49.4666C40.4785 50.3331 40.3138 51.3035 40.0488 52.3777L37.3633 52.0769C37.5566 51.3321 37.6963 50.641 37.7822 50.0037C37.8753 49.3663 37.9326 48.8149 37.9541 48.3494C37.9756 47.8839 37.9863 47.3289 37.9863 46.6843V45.4812H40.6504V46.6843ZM40.1992 64.1296H37.4277V59.5212H26.5137V57.3298H40.1992V64.1296ZM30.7676 47.6619H26.041V45.4812H30.7676V47.6619ZM32.1426 46.3191C32.1426 46.9421 32.1247 47.5294 32.0889 48.0808C32.0602 48.6251 31.9707 49.2732 31.8203 50.0251C31.6699 50.7699 31.4408 51.5649 31.1328 52.4099L28.501 52.0447C28.7946 51.1781 29.0094 50.3904 29.1455 49.6814C29.2887 48.9653 29.3747 48.3637 29.4033 47.8767C29.4391 47.3897 29.457 46.8705 29.457 46.3191V45.4812H32.1426V46.3191ZM65.0996 54.7195H62.3389V44.6648H65.0996V54.7195ZM65.0996 60.7136H54.5615V63.1306H51.8438V58.7585H62.3818V57.6199H51.8008V55.4929H65.0996V60.7136ZM65.6475 64.0974H51.8438V61.949H65.6475V64.0974ZM60.1582 47.9734H49.5342V45.8787H60.1582V47.9734ZM49.0078 52.1843C51.2708 52.1772 53.3942 52.1342 55.3779 52.0554C57.3688 51.9766 59.2165 51.837 60.9209 51.6365L61.0391 53.6023C59.2845 53.8816 57.4118 54.075 55.4209 54.1824C53.43 54.2826 51.3926 54.3328 49.3086 54.3328L49.0078 52.1843ZM53.7344 53.2585H51.1025V46.8347H53.7344V53.2585ZM58.5361 53.2585H55.915V46.8347H58.5361V53.2585ZM74.4131 60.1228H71.6953V54.6335H74.4131V60.1228ZM81.6104 60.1228H78.8496V54.6335H81.6104V60.1228ZM85.585 61.949H67.71V59.7039H85.585V61.949ZM76.6152 45.6316C78.026 45.6316 79.2865 45.85 80.3965 46.2869C81.5137 46.7237 82.3874 47.3396 83.0176 48.1345C83.6549 48.9294 83.9736 49.8425 83.9736 50.8738C83.9736 51.9122 83.6585 52.8289 83.0283 53.6238C82.3981 54.4115 81.5244 55.0238 80.4072 55.4607C79.2972 55.8904 78.0332 56.1088 76.6152 56.116C75.2044 56.1088 73.9404 55.8904 72.8232 55.4607C71.7132 55.0238 70.8431 54.4115 70.2129 53.6238C69.5827 52.8289 69.2676 51.9122 69.2676 50.8738C69.2676 49.8425 69.5827 48.9294 70.2129 48.1345C70.8431 47.3396 71.7168 46.7237 72.834 46.2869C73.9512 45.85 75.2116 45.6316 76.6152 45.6316ZM76.6152 47.8015C75.6842 47.7944 74.8714 47.9125 74.1768 48.156C73.4821 48.3995 72.9414 48.754 72.5547 49.2195C72.168 49.6778 71.9746 50.2292 71.9746 50.8738C71.9746 51.5111 72.168 52.0662 72.5547 52.5388C72.9414 53.0043 73.4821 53.366 74.1768 53.6238C74.8786 53.8744 75.6914 53.9998 76.6152 53.9998C77.5319 53.9998 78.3411 53.8744 79.043 53.6238C79.7448 53.366 80.2891 53.0043 80.6758 52.5388C81.0697 52.0662 81.2666 51.5111 81.2666 50.8738C81.2666 50.2292 81.0732 49.6778 80.6865 49.2195C80.2998 48.7611 79.7555 48.4102 79.0537 48.1667C78.359 47.9161 77.5462 47.7944 76.6152 47.8015ZM102.225 59.3064H99.4854V44.7078H102.225V59.3064ZM104.867 52.9363H101.43V50.6912H104.867V52.9363ZM98.3145 48.908H86.7021V46.7488H98.3145V48.908ZM92.5244 49.5955C93.4554 49.5955 94.2861 49.7566 95.0166 50.0789C95.7471 50.394 96.3164 50.838 96.7246 51.4109C97.1328 51.9838 97.3369 52.6427 97.3369 53.3875C97.3369 54.1251 97.1328 54.7768 96.7246 55.3425C96.3164 55.9011 95.7471 56.338 95.0166 56.6531C94.2861 56.9682 93.4554 57.1257 92.5244 57.1257C91.5791 57.1257 90.7376 56.9682 90 56.6531C89.2624 56.338 88.6895 55.9011 88.2812 55.3425C87.873 54.7768 87.6689 54.1251 87.6689 53.3875C87.6689 52.6427 87.873 51.9838 88.2812 51.4109C88.6895 50.838 89.2624 50.394 90 50.0789C90.7376 49.7566 91.5791 49.5955 92.5244 49.5955ZM92.5244 51.7009C92.0876 51.7009 91.7008 51.7654 91.3643 51.8943C91.0348 52.0232 90.7806 52.2166 90.6016 52.4744C90.4225 52.7322 90.333 53.0365 90.333 53.3875C90.333 53.7384 90.4225 54.0391 90.6016 54.2898C90.7806 54.5333 91.0348 54.7195 91.3643 54.8484C91.7008 54.9773 92.0876 55.0417 92.5244 55.0417C92.9613 55.0417 93.3444 54.9773 93.6738 54.8484C94.0104 54.7195 94.2718 54.5333 94.458 54.2898C94.6442 54.0391 94.7373 53.7384 94.7373 53.3875C94.7373 53.0365 94.6442 52.7322 94.458 52.4744C94.2718 52.2166 94.0104 52.0232 93.6738 51.8943C93.3444 51.7654 92.9613 51.7009 92.5244 51.7009ZM93.8887 47.8123H91.1494V44.6755H93.8887V47.8123ZM102.923 63.9041H89.5381V61.6912H102.923V63.9041ZM92.2773 62.6365H89.5381V58.1785H92.2773V62.6365ZM125.277 51.6687H121.518V49.4451H125.277V51.6687ZM127.297 56.2986H124.568V44.6648H127.297V56.2986ZM120.615 56.7283C122.012 56.7283 123.215 56.8787 124.225 57.1794C125.234 57.4731 126.008 57.9028 126.545 58.4685C127.089 59.0343 127.361 59.711 127.361 60.4988C127.361 61.2794 127.089 61.949 126.545 62.5076C126.008 63.0733 125.234 63.5066 124.225 63.8074C123.215 64.1082 122.012 64.2621 120.615 64.2693C119.233 64.2621 118.037 64.1082 117.027 63.8074C116.025 63.5066 115.251 63.0733 114.707 62.5076C114.17 61.949 113.901 61.2794 113.901 60.4988C113.901 59.711 114.17 59.0343 114.707 58.4685C115.251 57.9028 116.025 57.4731 117.027 57.1794C118.037 56.8787 119.233 56.7283 120.615 56.7283ZM120.615 58.8123C119.756 58.8123 119.029 58.8731 118.435 58.9949C117.84 59.1166 117.389 59.3028 117.081 59.5535C116.773 59.8041 116.619 60.1192 116.619 60.4988C116.619 60.8569 116.773 61.1648 117.081 61.4226C117.389 61.6733 117.84 61.863 118.435 61.9919C119.029 62.1137 119.756 62.1746 120.615 62.1746C121.496 62.1746 122.234 62.1137 122.828 61.9919C123.423 61.863 123.87 61.6733 124.171 61.4226C124.472 61.1648 124.622 60.8569 124.622 60.4988C124.622 60.1192 124.472 59.8041 124.171 59.5535C123.87 59.3028 123.423 59.1166 122.828 58.9949C122.234 58.8731 121.496 58.8123 120.615 58.8123ZM117.64 47.9304C117.64 49.198 117.436 50.3868 117.027 51.4968C116.619 52.6069 116 53.5844 115.169 54.4294C114.345 55.2673 113.332 55.894 112.129 56.3093L110.7 54.1287C111.746 53.7778 112.619 53.28 113.321 52.6355C114.03 51.9838 114.553 51.2533 114.89 50.4441C115.233 49.6277 115.405 48.7898 115.405 47.9304V46.6414H117.64V47.9304ZM118.198 47.9089C118.198 48.7039 118.359 49.4737 118.682 50.2185C119.011 50.9633 119.512 51.6365 120.186 52.238C120.859 52.8396 121.697 53.3087 122.699 53.6453L121.346 55.7937C120.164 55.407 119.169 54.8197 118.359 54.032C117.557 53.2371 116.959 52.3132 116.565 51.2605C116.172 50.2078 115.975 49.0906 115.975 47.9089V46.6414H118.198V47.9089ZM122.098 48.0701H111.484V45.8572H122.098V48.0701ZM147.718 61.9597H129.843V59.7468H147.718V61.9597ZM140.091 60.2947H137.395V55.5037H140.091V60.2947ZM134.483 48.9724H143.002V45.9216H145.73V56.116H131.733V45.9216H134.483V48.9724ZM143.002 53.9246V51.1423H134.483V53.9246H143.002ZM158.814 55.697H149.426V46.2976H158.814V55.697ZM152.144 53.5378H156.118V48.489H152.144V53.5378ZM164.357 58.9626H161.618V44.697H164.357V58.9626ZM167 52.5818H163.562V50.3259H167V52.5818ZM165.056 63.9041H151.671V61.6912H165.056V63.9041ZM154.41 62.7869H151.671V57.5447H154.41V62.7869ZM188.463 55.7185H185.724V44.7078H188.463V55.7185ZM191.127 51.0671H187.732V48.8328H191.127V51.0671ZM188.463 64.0115H175.647V56.6101H188.463V64.0115ZM178.354 61.8523H185.777V58.7371H178.354V61.8523ZM176.485 53.6238H173.735V45.6208H176.485V53.6238ZM175.411 52.4421C176.829 52.4421 178.261 52.3777 179.708 52.2488C181.155 52.1127 182.623 51.905 184.112 51.6257L184.435 53.8708C182.938 54.1645 181.445 54.3757 179.955 54.5046C178.465 54.6264 176.951 54.6873 175.411 54.6873H173.735V52.4421H175.411ZM208.4 64.2371H205.618V44.6648H208.4V64.2371ZM202.546 46.7273C202.546 48.8256 202.263 50.7306 201.697 52.4421C201.139 54.1466 200.19 55.7149 198.851 57.1472C197.511 58.5723 195.717 59.8184 193.469 60.8855L192.029 58.6941C193.913 57.8061 195.424 56.807 196.562 55.697C197.701 54.587 198.528 53.3409 199.044 51.9587C199.56 50.5766 199.817 48.9939 199.817 47.2107V46.7273H202.546ZM201.074 48.8865H193.071V46.7273H201.074V48.8865ZM226.866 52.1628H213.191V50.0251H226.866V52.1628ZM228.843 56.406H210.968V54.2576H228.843V56.406ZM215.931 51.0994H213.191V45.3738H215.931V51.0994ZM226.984 63.8074H213.02V61.5945H226.984V63.8074ZM215.77 62.2283H213.02V58.0066H215.77V62.2283ZM241.798 60.1228H239.08V54.6335H241.798V60.1228ZM248.995 60.1228H246.234V54.6335H248.995V60.1228ZM252.97 61.949H235.095V59.7039H252.97V61.949ZM244 45.6316C245.411 45.6316 246.671 45.85 247.781 46.2869C248.898 46.7237 249.772 47.3396 250.402 48.1345C251.04 48.9294 251.358 49.8425 251.358 50.8738C251.358 51.9122 251.043 52.8289 250.413 53.6238C249.783 54.4115 248.909 55.0238 247.792 55.4607C246.682 55.8904 245.418 56.1088 244 56.116C242.589 56.1088 241.325 55.8904 240.208 55.4607C239.098 55.0238 238.228 54.4115 237.598 53.6238C236.967 52.8289 236.652 51.9122 236.652 50.8738C236.652 49.8425 236.967 48.9294 237.598 48.1345C238.228 47.3396 239.102 46.7237 240.219 46.2869C241.336 45.85 242.596 45.6316 244 45.6316ZM244 47.8015C243.069 47.7944 242.256 47.9125 241.562 48.156C240.867 48.3995 240.326 48.754 239.939 49.2195C239.553 49.6778 239.359 50.2292 239.359 50.8738C239.359 51.5111 239.553 52.0662 239.939 52.5388C240.326 53.0043 240.867 53.366 241.562 53.6238C242.263 53.8744 243.076 53.9998 244 53.9998C244.917 53.9998 245.726 53.8744 246.428 53.6238C247.13 53.366 247.674 53.0043 248.061 52.5388C248.454 52.0662 248.651 51.5111 248.651 50.8738C248.651 50.2292 248.458 49.6778 248.071 49.2195C247.685 48.7611 247.14 48.4102 246.438 48.1667C245.744 47.9161 244.931 47.7944 244 47.8015ZM272.155 49.488H268.761V47.2751H272.155V49.488ZM272.155 53.7527H268.761V51.4753H272.155V53.7527ZM269.609 56.2126H266.87V44.6648H269.609V56.2126ZM269.609 64.2371H266.87V59.2205H256.45V56.9968H269.609V64.2371ZM259.587 45.7605C260.59 45.7533 261.495 45.9539 262.305 46.3621C263.121 46.7703 263.762 47.336 264.228 48.0593C264.7 48.7826 264.937 49.6026 264.937 50.5193C264.937 51.4288 264.704 52.2524 264.238 52.99C263.773 53.7205 263.132 54.2934 262.315 54.7087C261.506 55.1169 260.597 55.321 259.587 55.321C258.577 55.321 257.668 55.1169 256.858 54.7087C256.049 54.2934 255.408 53.7205 254.936 52.99C254.463 52.2524 254.227 51.4288 254.227 50.5193C254.227 49.6026 254.463 48.7862 254.936 48.0701C255.408 47.3468 256.053 46.781 256.869 46.3728C257.686 45.9574 258.591 45.7533 259.587 45.7605ZM259.587 48.0808C259.078 48.0808 258.62 48.1775 258.212 48.3708C257.811 48.5642 257.496 48.8435 257.267 49.2087C257.037 49.574 256.923 50.0108 256.923 50.5193C256.923 51.0278 257.037 51.4682 257.267 51.8406C257.496 52.2058 257.811 52.4887 258.212 52.6892C258.62 52.8826 259.078 52.9792 259.587 52.9792C260.095 52.9792 260.55 52.8826 260.951 52.6892C261.359 52.4887 261.678 52.2058 261.907 51.8406C262.144 51.4682 262.262 51.0278 262.262 50.5193C262.262 50.0108 262.144 49.574 261.907 49.2087C261.678 48.8435 261.363 48.5642 260.962 48.3708C260.561 48.1775 260.103 48.0808 259.587 48.0808Z" fill="white"/>
<path d="M59.1087 98.455C59.1716 98.1793 59.4687 98.0278 59.7288 98.1386L105.653 117.715C106.81 118.209 107.45 119.46 107.155 120.682C102.345 140.671 94.2268 159.716 83.1362 177.027C82.4579 178.086 81.1121 178.491 79.9553 177.998L35.8758 159.207C34.6548 158.687 34.2024 157.188 34.9315 156.079V156.079C46.1011 139.088 54.1383 120.234 58.6626 100.41L59.1087 98.455Z" fill="#616F7C"/>
<g filter="url(#filter0_d_382_3691)">
<rect x="24" y="120.667" width="42.3405" height="55.6618" rx="2.26824" transform="rotate(-23.1948 24 120.667)" fill="#7C8692" shape-rendering="crispEdges"/>
<g opacity="0.7">
<rect x="30.7612" y="125.56" width="12.059" height="2.67978" rx="1.33989" transform="rotate(-23.1948 30.7612 125.56)" fill="#91959E"/>
<rect x="33.3999" y="131.718" width="33.7652" height="2.42399" rx="1.212" transform="rotate(-23.1948 33.3999 131.718)" fill="#91959E"/>
<rect x="35.9377" y="137.641" width="33.7652" height="2.42399" rx="1.212" transform="rotate(-23.1948 35.9377 137.641)" fill="#91959E"/>
<rect x="38.4756" y="143.564" width="33.7652" height="2.42399" rx="1.212" transform="rotate(-23.1948 38.4756 143.564)" fill="#91959E"/>
<rect x="41.0137" y="149.487" width="33.7652" height="2.42399" rx="1.212" transform="rotate(-23.1948 41.0137 149.487)" fill="#91959E"/>
<rect x="43.5515" y="155.409" width="33.7652" height="2.42399" rx="1.212" transform="rotate(-23.1948 43.5515 155.409)" fill="#91959E"/>
<rect x="46.0894" y="161.332" width="33.7652" height="2.42399" rx="1.212" transform="rotate(-23.1948 46.0894 161.332)" fill="#91959E"/>
</g>
</g>
<g filter="url(#filter1_d_382_3691)">
<rect x="38.731" y="97.4207" width="44.9681" height="59.1161" rx="2.409" transform="rotate(-10.455 38.731 97.4207)" fill="#98A0A9" shape-rendering="crispEdges"/>
<g opacity="0.7">
<rect x="44.5889" y="104.072" width="12.8074" height="2.84608" rx="1.42304" transform="rotate(-10.455 44.5889 104.072)" fill="#C8CCD0"/>
<rect x="45.8801" y="111.069" width="35.8606" height="2.57442" rx="1.28721" transform="rotate(-10.455 45.8801 111.069)" fill="#ADB3BA"/>
<rect x="47.1218" y="117.8" width="35.8606" height="2.57442" rx="1.28721" transform="rotate(-10.455 47.1218 117.8)" fill="#ADB3BA"/>
<rect x="48.3638" y="124.529" width="35.8606" height="2.57442" rx="1.28721" transform="rotate(-10.455 48.3638 124.529)" fill="#ADB3BA"/>
<rect x="49.6055" y="131.259" width="35.8606" height="2.57442" rx="1.28721" transform="rotate(-10.455 49.6055 131.259)" fill="#ADB3BA"/>
<rect x="50.8474" y="137.989" width="35.8606" height="2.57442" rx="1.28721" transform="rotate(-10.455 50.8474 137.989)" fill="#ADB3BA"/>
<rect x="52.0894" y="144.719" width="35.8606" height="2.57442" rx="1.28721" transform="rotate(-10.455 52.0894 144.719)" fill="#ADB3BA"/>
</g>
</g>
<path d="M31.0811 208H29.0166V200.057H28.9619L26.6992 201.492V199.66L29.1465 198.102H31.0811V208ZM37.0557 208.137C36.3356 208.137 35.6908 208.014 35.1211 207.768C34.5514 207.521 34.1048 207.175 33.7812 206.729C33.4622 206.282 33.2959 205.776 33.2822 205.211H35.3535C35.3672 205.443 35.4492 205.653 35.5996 205.84C35.75 206.027 35.9528 206.173 36.208 206.277C36.4632 206.382 36.7458 206.435 37.0557 206.435C37.3792 206.435 37.6709 206.378 37.9307 206.264C38.195 206.145 38.3978 205.986 38.5391 205.785C38.6803 205.58 38.7487 205.348 38.7441 205.088C38.7487 204.819 38.6758 204.58 38.5254 204.37C38.375 204.16 38.1562 203.999 37.8691 203.885C37.5866 203.766 37.2539 203.707 36.8711 203.707H35.9482V202.189H36.8711C37.1947 202.189 37.484 202.135 37.7393 202.025C37.9945 201.911 38.1904 201.754 38.3271 201.554C38.4639 201.353 38.5299 201.125 38.5254 200.87C38.5299 200.619 38.473 200.398 38.3545 200.207C38.236 200.011 38.0651 199.861 37.8418 199.756C37.6185 199.651 37.3633 199.599 37.0762 199.599C36.7845 199.599 36.5179 199.651 36.2764 199.756C36.0348 199.856 35.8389 200.002 35.6885 200.193C35.5426 200.38 35.4629 200.599 35.4492 200.85H33.4805C33.4987 200.289 33.665 199.79 33.9795 199.353C34.2939 198.915 34.7201 198.576 35.2578 198.334C35.8001 198.088 36.4062 197.965 37.0762 197.965C37.7552 197.965 38.3545 198.086 38.874 198.327C39.3936 198.569 39.7969 198.901 40.084 199.325C40.3711 199.749 40.5101 200.223 40.501 200.747C40.5101 201.107 40.4349 201.435 40.2754 201.731C40.1204 202.028 39.8994 202.271 39.6123 202.463C39.3298 202.65 39.0016 202.777 38.6279 202.846V202.921C39.111 202.98 39.5212 203.115 39.8584 203.324C40.2002 203.529 40.4577 203.794 40.6309 204.117C40.804 204.441 40.8861 204.81 40.877 205.225C40.8861 205.776 40.7266 206.275 40.3984 206.722C40.0703 207.164 39.6146 207.51 39.0312 207.761C38.4479 208.011 37.7894 208.137 37.0557 208.137ZM42.3262 206.517L45.8877 203.242C46.2386 202.905 46.512 202.627 46.708 202.408C46.904 202.185 47.0521 201.962 47.1523 201.738C47.2572 201.51 47.3096 201.269 47.3096 201.014C47.3096 200.731 47.2412 200.483 47.1045 200.269C46.9678 200.05 46.7809 199.883 46.5439 199.77C46.307 199.656 46.0381 199.599 45.7373 199.599C45.432 199.599 45.1608 199.66 44.9238 199.783C44.6914 199.906 44.5114 200.086 44.3838 200.323C44.2607 200.556 44.1992 200.827 44.1992 201.137H42.2441C42.2441 200.503 42.39 199.947 42.6816 199.469C42.9779 198.986 43.3903 198.614 43.9189 198.354C44.4521 198.095 45.0651 197.965 45.7578 197.965C46.4551 197.965 47.0703 198.088 47.6035 198.334C48.1367 198.58 48.5492 198.924 48.8408 199.366C49.137 199.808 49.2852 200.314 49.2852 200.884C49.2852 201.271 49.21 201.645 49.0596 202.005C48.9137 202.365 48.654 202.764 48.2803 203.201C47.9111 203.639 47.3848 204.167 46.7012 204.787L45.1904 206.243V206.312H49.4287V208H42.333L42.3262 206.517ZM55.1436 208H53.0791V200.057H53.0244L50.7617 201.492V199.66L53.209 198.102H55.1436V208ZM61.2617 200.2C61.2617 201.153 61.1273 202.078 60.8584 202.976C60.5895 203.869 60.1908 204.664 59.6621 205.361C59.1335 206.054 58.5023 206.574 57.7686 206.92L56.7432 205.546C57.4176 205.231 57.9873 204.787 58.4521 204.213C58.9215 203.639 59.277 203.005 59.5186 202.312C59.7601 201.62 59.8809 200.916 59.8809 200.2V198.751H61.2617V200.2ZM61.6309 200.2C61.6309 200.856 61.7448 201.513 61.9727 202.169C62.2051 202.821 62.5492 203.42 63.0049 203.967C63.4652 204.509 64.0234 204.931 64.6797 205.231L63.709 206.599C62.9798 206.266 62.3555 205.767 61.8359 205.102C61.3164 204.436 60.9222 203.68 60.6533 202.832C60.3844 201.98 60.25 201.103 60.25 200.2V198.751H61.6309V200.2ZM64.1396 199.441H57.2422V198.02H64.1396V199.441ZM66.8535 209.258H65.1035V196.803H66.8535V209.258ZM68.6992 203.023H66.4707V201.567H68.6992V203.023ZM75.7334 197.685C76.3623 197.685 76.9229 197.867 77.415 198.231C77.9118 198.596 78.3014 199.113 78.584 199.783C78.8711 200.453 79.0146 201.232 79.0146 202.121C79.0146 203.014 78.8711 203.796 78.584 204.466C78.3014 205.136 77.9118 205.653 77.415 206.018C76.9229 206.378 76.3623 206.558 75.7334 206.558C75.0999 206.558 74.5326 206.378 74.0312 206.018C73.5345 205.653 73.1449 205.136 72.8623 204.466C72.5843 203.796 72.4453 203.014 72.4453 202.121C72.4453 201.232 72.5843 200.453 72.8623 199.783C73.1449 199.113 73.5345 198.596 74.0312 198.231C74.5326 197.867 75.0999 197.685 75.7334 197.685ZM75.7334 199.264C75.4144 199.259 75.1318 199.368 74.8857 199.592C74.6442 199.815 74.4574 200.141 74.3252 200.569C74.193 200.998 74.127 201.515 74.127 202.121C74.127 202.727 74.193 203.244 74.3252 203.673C74.4574 204.101 74.6465 204.427 74.8926 204.65C75.1387 204.869 75.4189 204.979 75.7334 204.979C76.057 204.979 76.3395 204.869 76.5811 204.65C76.8226 204.427 77.0072 204.101 77.1348 203.673C77.2669 203.244 77.333 202.727 77.333 202.121C77.333 201.51 77.2669 200.991 77.1348 200.562C77.0072 200.134 76.8226 199.811 76.5811 199.592C76.3395 199.368 76.057 199.259 75.7334 199.264ZM82.1934 209.258H80.4434V196.803H82.1934V209.258ZM84.0391 202.962H81.8105V201.506H84.0391V202.962ZM86.2334 205.04C87.432 205.04 88.471 205.015 89.3506 204.965C90.2301 204.91 91.1325 204.814 92.0576 204.678L92.2217 206.079C91.3193 206.211 90.4147 206.302 89.5078 206.353C88.6009 206.398 87.5094 206.425 86.2334 206.435H85.1533V205.04H86.2334ZM91.4834 199.264H86.8896V205.478H85.1533V197.842H91.4834V199.264ZM90.9707 202.688H86.4932V201.314H90.9707V202.688ZM94.9355 209.258H93.165V196.803H94.9355V209.258ZM105.928 198.642H97.9707V197.268H105.928V198.642ZM106.611 198.348C106.611 199.086 106.591 199.731 106.55 200.282C106.513 200.834 106.42 201.44 106.27 202.101L104.567 201.937C104.659 201.485 104.727 201.059 104.772 200.658C104.818 200.257 104.845 199.897 104.854 199.578C104.868 199.259 104.875 198.849 104.875 198.348V197.268H106.611V198.348ZM97.8271 200.843L97.6289 199.51L105.429 199.353V200.542L97.8271 200.843ZM107.903 203.01H96.6035V201.629H107.903V203.01ZM106.673 207.016H99.584V208.376H97.8545V205.758H104.93V205.074H97.8408V203.748H106.673V207.016ZM107.104 209.121H97.8545V207.774H107.104V209.121Z" fill="white"/>
<path d="M139.393 153.279H139.488L141.901 145.732H144.185L140.76 155.63H138.121L134.703 145.732H136.979L139.393 153.279ZM150.665 148.562C150.638 148.298 150.553 148.072 150.412 147.885C150.275 147.698 150.084 147.557 149.838 147.461C149.592 147.366 149.298 147.318 148.956 147.318C148.623 147.318 148.334 147.366 148.088 147.461C147.846 147.557 147.662 147.692 147.534 147.865C147.407 148.033 147.343 148.227 147.343 148.446C147.338 148.778 147.475 149.038 147.753 149.225C148.035 149.412 148.425 149.567 148.922 149.69L149.811 149.902C150.749 150.111 151.476 150.451 151.991 150.92C152.511 151.385 152.773 152.014 152.777 152.807C152.777 153.404 152.625 153.926 152.319 154.373C152.014 154.819 151.574 155.163 151 155.405C150.426 155.646 149.74 155.767 148.942 155.767C148.145 155.767 147.45 155.644 146.857 155.398C146.27 155.152 145.814 154.79 145.49 154.311C145.167 153.828 144.993 153.238 144.971 152.541H146.967C146.994 152.864 147.092 153.138 147.261 153.361C147.429 153.584 147.657 153.753 147.944 153.867C148.231 153.981 148.557 154.038 148.922 154.038C149.277 154.038 149.59 153.985 149.858 153.88C150.127 153.776 150.335 153.63 150.48 153.443C150.626 153.251 150.699 153.035 150.699 152.793C150.699 152.575 150.635 152.39 150.508 152.24C150.38 152.085 150.193 151.955 149.947 151.85C149.706 151.741 149.394 151.638 149.011 151.542L147.924 151.283C147.058 151.069 146.393 150.743 145.928 150.305C145.467 149.863 145.237 149.289 145.237 148.583C145.237 147.995 145.397 147.475 145.716 147.024C146.039 146.573 146.484 146.222 147.049 145.971C147.618 145.721 148.261 145.595 148.977 145.595C149.697 145.595 150.332 145.721 150.884 145.971C151.435 146.217 151.864 146.566 152.169 147.017C152.474 147.464 152.632 147.979 152.641 148.562H150.665Z" fill="white"/>
<g filter="url(#filter2_d_382_3691)">
<rect x="177" y="118.346" width="130.699" height="55.5331" rx="9.33568" fill="#0188FF"/>
<rect x="177.414" y="118.76" width="129.872" height="54.7059" rx="8.92207" stroke="url(#paint0_linear_382_3691)" stroke-opacity="0.3" stroke-width="0.827212"/>
<rect x="190.235" y="131.581" width="37.2245" height="6.61769" rx="3.30885" fill="#F6F7FB"/>
<rect opacity="0.8" x="190.235" y="144.817" width="104.229" height="4.60464" rx="2.30232" fill="#F6F7FB"/>
<rect opacity="0.8" x="190.235" y="156.039" width="104.229" height="4.60464" rx="2.30232" fill="#F6F7FB"/>
</g>
<g opacity="0.5">
<mask id="mask0_382_3691" style="mask-type:alpha" maskUnits="userSpaceOnUse" x="188" y="99" width="108" height="14">
<rect x="188.074" y="99.8003" width="107.909" height="12.383" fill="url(#paint1_linear_382_3691)"/>
</mask>
<g mask="url(#mask0_382_3691)">
<rect x="188.703" y="99.8003" width="107.28" height="48.8869" rx="7.83731" fill="#0188FF"/>
<rect x="189.095" y="100.192" width="106.496" height="48.1032" rx="7.44545" stroke="url(#paint2_linear_382_3691)" stroke-opacity="0.3" stroke-width="0.783731"/>
</g>
</g>
<g opacity="0.5">
<mask id="mask1_382_3691" style="mask-type:alpha" maskUnits="userSpaceOnUse" x="195" y="91" width="94" height="11">
<rect x="195.53" y="91.261" width="92.996" height="10.6717" fill="url(#paint3_linear_382_3691)"/>
</mask>
<g mask="url(#mask1_382_3691)">
<rect x="196.072" y="91.2612" width="92.4539" height="42.1309" rx="6.75422" fill="#0188FF"/>
<rect x="196.41" y="91.5989" width="91.7785" height="41.4555" rx="6.41651" stroke="url(#paint4_linear_382_3691)" stroke-opacity="0.3" stroke-width="0.675422"/>
</g>
</g>
<g opacity="0.5">
<mask id="mask2_382_3691" style="mask-type:alpha" maskUnits="userSpaceOnUse" x="182" y="108" width="121" height="14">
<rect x="182.661" y="108.603" width="119.647" height="12.7867" fill="url(#paint5_linear_382_3691)"/>
</mask>
<g mask="url(#mask2_382_3691)">
<rect x="182.661" y="109.276" width="119.911" height="54.643" rx="7.58931" fill="#0188FF"/>
<rect x="183.04" y="109.655" width="119.152" height="53.8841" rx="7.20985" stroke="url(#paint6_linear_382_3691)" stroke-opacity="0.3" stroke-width="0.758931"/>
</g>
</g>
<path d="M215.566 208H213.502V200.057H213.447L211.185 201.492V199.66L213.632 198.102H215.566V208ZM217.856 206.517L221.418 203.242C221.769 202.905 222.042 202.627 222.238 202.408C222.434 202.185 222.582 201.962 222.683 201.738C222.787 201.51 222.84 201.269 222.84 201.014C222.84 200.731 222.771 200.483 222.635 200.269C222.498 200.05 222.311 199.883 222.074 199.77C221.837 199.656 221.568 199.599 221.268 199.599C220.962 199.599 220.691 199.66 220.454 199.783C220.222 199.906 220.042 200.086 219.914 200.323C219.791 200.556 219.729 200.827 219.729 201.137H217.774C217.774 200.503 217.92 199.947 218.212 199.469C218.508 198.986 218.921 198.614 219.449 198.354C219.982 198.095 220.595 197.965 221.288 197.965C221.985 197.965 222.601 198.088 223.134 198.334C223.667 198.58 224.079 198.924 224.371 199.366C224.667 199.808 224.815 200.314 224.815 200.884C224.815 201.271 224.74 201.645 224.59 202.005C224.444 202.365 224.184 202.764 223.811 203.201C223.441 203.639 222.915 204.167 222.231 204.787L220.721 206.243V206.312H224.959V208H217.863L217.856 206.517ZM230.134 208.137C229.396 208.137 228.73 208.016 228.138 207.774C227.55 207.533 227.09 207.198 226.757 206.77C226.424 206.341 226.258 205.863 226.258 205.334C226.258 204.928 226.354 204.55 226.545 204.199C226.736 203.844 226.996 203.552 227.324 203.324C227.657 203.096 228.026 202.953 228.432 202.894V202.818C228.085 202.75 227.775 202.613 227.502 202.408C227.229 202.199 227.014 201.939 226.859 201.629C226.704 201.319 226.627 200.986 226.627 200.631C226.627 200.125 226.78 199.669 227.085 199.264C227.39 198.854 227.81 198.535 228.343 198.307C228.876 198.079 229.473 197.965 230.134 197.965C230.799 197.965 231.398 198.079 231.932 198.307C232.469 198.535 232.889 198.854 233.189 199.264C233.495 199.669 233.647 200.125 233.647 200.631C233.647 200.986 233.568 201.319 233.408 201.629C233.253 201.939 233.039 202.199 232.766 202.408C232.497 202.613 232.187 202.75 231.836 202.818V202.894C232.242 202.953 232.608 203.096 232.937 203.324C233.269 203.552 233.534 203.844 233.729 204.199C233.925 204.55 234.023 204.928 234.023 205.334C234.023 205.863 233.855 206.341 233.518 206.77C233.185 207.198 232.722 207.533 232.13 207.774C231.542 208.016 230.877 208.137 230.134 208.137ZM230.134 206.571C230.476 206.571 230.779 206.51 231.043 206.387C231.307 206.264 231.512 206.093 231.658 205.874C231.804 205.655 231.877 205.409 231.877 205.136C231.877 204.849 231.802 204.591 231.651 204.363C231.501 204.135 231.294 203.958 231.029 203.83C230.765 203.702 230.466 203.639 230.134 203.639C229.806 203.639 229.509 203.702 229.245 203.83C228.981 203.958 228.773 204.135 228.623 204.363C228.473 204.591 228.4 204.849 228.404 205.136C228.4 205.409 228.47 205.655 228.616 205.874C228.762 206.093 228.967 206.264 229.231 206.387C229.496 206.51 229.797 206.571 230.134 206.571ZM230.134 202.183C230.421 202.183 230.678 202.126 230.906 202.012C231.139 201.893 231.319 201.734 231.446 201.533C231.574 201.328 231.638 201.098 231.638 200.843C231.638 200.583 231.574 200.353 231.446 200.152C231.323 199.952 231.146 199.797 230.913 199.688C230.685 199.574 230.425 199.517 230.134 199.517C229.847 199.517 229.587 199.574 229.354 199.688C229.127 199.797 228.949 199.952 228.821 200.152C228.698 200.353 228.637 200.583 228.637 200.843C228.637 201.098 228.701 201.328 228.828 201.533C228.96 201.734 229.14 201.893 229.368 202.012C229.596 202.126 229.851 202.183 230.134 202.183ZM239.226 200.2C239.226 201.153 239.091 202.078 238.822 202.976C238.553 203.869 238.155 204.664 237.626 205.361C237.097 206.054 236.466 206.574 235.732 206.92L234.707 205.546C235.382 205.231 235.951 204.787 236.416 204.213C236.885 203.639 237.241 203.005 237.482 202.312C237.724 201.62 237.845 200.916 237.845 200.2V198.751H239.226V200.2ZM239.595 200.2C239.595 200.856 239.709 201.513 239.937 202.169C240.169 202.821 240.513 203.42 240.969 203.967C241.429 204.509 241.987 204.931 242.644 205.231L241.673 206.599C240.944 206.266 240.319 205.767 239.8 205.102C239.28 204.436 238.886 203.68 238.617 202.832C238.348 201.98 238.214 201.103 238.214 200.2V198.751H239.595V200.2ZM242.104 199.441H235.206V198.02H242.104V199.441ZM244.817 209.258H243.067V196.803H244.817V209.258ZM246.663 203.023H244.435V201.567H246.663V203.023ZM256.828 198.006C256.828 199.419 256.678 200.674 256.377 201.772C256.076 202.866 255.516 203.887 254.695 204.835C253.88 205.778 252.727 206.626 251.236 207.378L250.286 206.059C251.558 205.43 252.547 204.735 253.253 203.974C253.959 203.213 254.449 202.376 254.723 201.465C254.996 200.553 255.133 199.476 255.133 198.231V198.006H256.828ZM256.172 199.407H251.072V198.006H256.172V199.407ZM250.628 202.832L250.416 201.342L255.167 201.062V202.408L250.628 202.832ZM260.157 209.237H258.407V196.803H260.157V209.237ZM261.914 203.023H259.706V201.588H261.914V203.023ZM272.578 203.974H263.787V202.579H272.578V203.974ZM273.822 207.747H262.447V206.312H273.822V207.747ZM272.489 199.264H265.51V203.16H263.787V197.855H272.489V199.264Z" fill="white"/>
<rect y="248" width="166" height="234" rx="9" fill="#292E3D"/>
<path d="M19.8965 276.492C19.8965 277.344 19.7812 278.156 19.5508 278.93C19.3203 279.699 18.9844 280.381 18.543 280.975C18.1016 281.564 17.5723 282.018 16.9551 282.334L16.1465 281.279C16.7051 281.018 17.1855 280.637 17.5879 280.137C17.9902 279.633 18.2988 279.066 18.5137 278.438C18.7285 277.805 18.8359 277.156 18.8359 276.492V274.799H19.8965V276.492ZM20.1309 276.492C20.1309 277.133 20.2324 277.756 20.4355 278.361C20.6426 278.963 20.9414 279.504 21.332 279.984C21.7266 280.461 22.1855 280.83 22.709 281.092L21.9238 282.129C21.3262 281.824 20.8125 281.387 20.3828 280.816C19.957 280.242 19.6348 279.584 19.416 278.842C19.2012 278.1 19.0938 277.316 19.0938 276.492V274.799H20.1309V276.492ZM24.6484 284.531H23.3477V273.949H24.6484V284.531ZM26.2832 279.211H24.3555V278.104H26.2832V279.211ZM30.2793 279.475H28.9727V277.518H30.2793V279.475ZM34.0938 279.475H32.793V277.518H34.0938V279.475ZM36.373 280.096H26.7285V279.041H36.373V280.096ZM31.5391 280.729C32.3047 280.729 32.9609 280.801 33.5078 280.945C34.0586 281.09 34.4785 281.305 34.7676 281.59C35.0605 281.871 35.207 282.215 35.207 282.621C35.207 283.027 35.0605 283.371 34.7676 283.652C34.4785 283.934 34.0586 284.148 33.5078 284.297C32.9609 284.445 32.3047 284.52 31.5391 284.52C30.7695 284.52 30.1074 284.445 29.5527 284.297C29.002 284.148 28.5801 283.934 28.2871 283.652C27.9941 283.371 27.8477 283.027 27.8477 282.621C27.8477 282.215 27.9941 281.871 28.2871 281.59C28.5801 281.305 29.002 281.09 29.5527 280.945C30.1074 280.801 30.7695 280.729 31.5391 280.729ZM31.5391 281.713C31.0234 281.713 30.5898 281.748 30.2383 281.818C29.8906 281.885 29.627 281.986 29.4473 282.123C29.2676 282.26 29.1777 282.426 29.1777 282.621C29.1777 282.816 29.2676 282.982 29.4473 283.119C29.627 283.256 29.8926 283.361 30.2441 283.436C30.5957 283.506 31.0273 283.541 31.5391 283.541C32.043 283.541 32.4727 283.506 32.8281 283.436C33.1836 283.361 33.4512 283.256 33.6309 283.119C33.8105 282.982 33.9004 282.816 33.9004 282.621C33.9004 282.426 33.8105 282.26 33.6309 282.123C33.4512 281.986 33.1855 281.885 32.834 281.818C32.4824 281.748 32.0508 281.713 31.5391 281.713ZM31.5508 274.119C32.3242 274.119 32.9961 274.201 33.5664 274.365C34.1406 274.525 34.582 274.756 34.8906 275.057C35.1992 275.357 35.3535 275.717 35.3535 276.135C35.3535 276.545 35.1992 276.9 34.8906 277.201C34.582 277.498 34.1426 277.727 33.5723 277.887C33.002 278.043 32.3281 278.121 31.5508 278.121C30.7695 278.121 30.0918 278.043 29.5176 277.887C28.9434 277.727 28.5 277.498 28.1875 277.201C27.8789 276.9 27.7246 276.545 27.7246 276.135C27.7246 275.717 27.8789 275.357 28.1875 275.057C28.5 274.756 28.9434 274.525 29.5176 274.365C30.0918 274.201 30.7695 274.119 31.5508 274.119ZM31.5508 275.127C31.0234 275.127 30.5742 275.168 30.2031 275.25C29.8359 275.328 29.5566 275.441 29.3652 275.59C29.1738 275.738 29.0781 275.92 29.0781 276.135C29.0781 276.35 29.1738 276.531 29.3652 276.68C29.5566 276.824 29.8359 276.936 30.2031 277.014C30.5742 277.092 31.0234 277.131 31.5508 277.131C32.0703 277.131 32.5137 277.092 32.8809 277.014C33.248 276.936 33.5293 276.824 33.7246 276.68C33.9199 276.531 34.0176 276.35 34.0176 276.135C34.0176 275.92 33.9199 275.738 33.7246 275.59C33.5293 275.441 33.248 275.328 32.8809 275.25C32.5137 275.168 32.0703 275.127 31.5508 275.127ZM45.3906 284.531H44.1016V273.949H45.3906V284.531ZM47.0254 279.246H45.0977V278.174H47.0254V279.246ZM43.2812 276.621H37.041V275.572H43.2812V276.621ZM40.1934 277.307C40.7051 277.307 41.1621 277.414 41.5645 277.629C41.9707 277.84 42.2891 278.135 42.5195 278.514C42.75 278.893 42.8652 279.322 42.8652 279.803C42.8652 280.279 42.75 280.709 42.5195 281.092C42.2891 281.471 41.9707 281.766 41.5645 281.977C41.1621 282.188 40.7051 282.293 40.1934 282.293C39.6855 282.293 39.2285 282.188 38.8223 281.977C38.416 281.766 38.0977 281.471 37.8672 281.092C37.6406 280.709 37.5273 280.279 37.5273 279.803C37.5273 279.322 37.6406 278.893 37.8672 278.514C38.0977 278.135 38.416 277.84 38.8223 277.629C39.2285 277.414 39.6855 277.307 40.1934 277.307ZM40.1934 278.379C39.9238 278.379 39.6797 278.438 39.4609 278.555C39.2461 278.672 39.0762 278.838 38.9512 279.053C38.8301 279.268 38.7695 279.518 38.7695 279.803C38.7695 280.084 38.8301 280.332 38.9512 280.547C39.0762 280.762 39.2461 280.928 39.4609 281.045C39.6797 281.158 39.9238 281.215 40.1934 281.215C40.4707 281.215 40.7168 281.158 40.9316 281.045C41.1465 280.928 41.3145 280.762 41.4355 280.547C41.5566 280.332 41.6172 280.084 41.6172 279.803C41.6172 279.518 41.5566 279.268 41.4355 279.053C41.3145 278.838 41.1465 278.672 40.9316 278.555C40.7168 278.438 40.4707 278.379 40.1934 278.379ZM40.8379 275.994H39.543V274.102H40.8379V275.994ZM55.4043 276.744H52.6094V275.684H55.4043V276.744ZM55.4395 279.006H52.6094V277.963H55.4395V279.006ZM52.8965 279.92H47.9277V274.834H52.8965V279.92ZM49.2227 278.9H51.6191V275.877H49.2227V278.9ZM56.3359 281.672H55.0352V273.961H56.3359V281.672ZM56.5645 284.344H49.3516V283.277H56.5645V284.344ZM50.6758 283.805H49.3516V280.957H50.6758V283.805ZM69.0508 279.703H67.75V273.932H69.0508V279.703ZM70.5449 277.365H68.5117V276.311H70.5449V277.365ZM69.0508 282.727H63.4199V283.811H62.1367V281.824H67.75V281.109H62.1191V280.166H69.0508V282.727ZM69.3848 284.449H62.1367V283.477H69.3848V284.449ZM66.9883 275.801H60.7012V274.799H66.9883V275.801ZM63.8477 276.135C64.3672 276.135 64.8223 276.205 65.2129 276.346C65.6035 276.482 65.9043 276.682 66.1152 276.943C66.3301 277.205 66.4375 277.514 66.4375 277.869C66.4375 278.221 66.3301 278.527 66.1152 278.789C65.9043 279.047 65.6035 279.246 65.2129 279.387C64.8262 279.527 64.3711 279.598 63.8477 279.598C63.332 279.598 62.877 279.527 62.4824 279.387C62.0879 279.246 61.7832 279.047 61.5684 278.789C61.3574 278.527 61.252 278.221 61.252 277.869C61.252 277.514 61.3574 277.205 61.5684 276.943C61.7832 276.682 62.0879 276.482 62.4824 276.346C62.877 276.205 63.332 276.135 63.8477 276.135ZM63.8477 277.055C63.5781 277.055 63.3418 277.088 63.1387 277.154C62.9355 277.221 62.7793 277.314 62.6699 277.436C62.5645 277.557 62.5117 277.701 62.5117 277.869C62.5117 278.033 62.5645 278.176 62.6699 278.297C62.7793 278.418 62.9336 278.508 63.1328 278.566C63.332 278.625 63.5703 278.654 63.8477 278.654C64.1289 278.654 64.3691 278.625 64.5684 278.566C64.7676 278.508 64.9219 278.418 65.0312 278.297C65.1445 278.176 65.2012 278.033 65.2012 277.869C65.2012 277.697 65.1445 277.553 65.0312 277.436C64.9219 277.314 64.7656 277.221 64.5625 277.154C64.3633 277.088 64.125 277.055 63.8477 277.055ZM64.5039 275.508H63.1973V273.867H64.5039V275.508ZM76.3574 274.834C76.3574 275.498 76.1738 276.113 75.8066 276.68C75.4395 277.242 74.9238 277.713 74.2598 278.092C73.5957 278.467 72.8418 278.721 71.998 278.854L71.4824 277.799C72.209 277.709 72.8555 277.514 73.4219 277.213C73.9922 276.908 74.4336 276.549 74.7461 276.135C75.0586 275.717 75.2148 275.283 75.2148 274.834V274.289H76.3574V274.834ZM76.5801 274.834C76.5801 275.279 76.7383 275.713 77.0547 276.135C77.3711 276.553 77.8145 276.912 78.3848 277.213C78.9551 277.514 79.6035 277.709 80.3301 277.799L79.8145 278.854C78.9668 278.721 78.2109 278.465 77.5469 278.086C76.8867 277.707 76.3711 277.236 76 276.674C75.6289 276.107 75.4434 275.494 75.4434 274.834V274.289H76.5801V274.834ZM76.5098 284.531H75.2266V280.594H76.5098V284.531ZM80.7168 280.846H71.0723V279.773H80.7168V280.846ZM91.1113 280.729H81.4316V279.68H91.1113V280.729ZM89.916 276.943H83.9512V278.191H82.6562V275.994H88.6035V275.203H82.627V274.178H89.916V276.943ZM90.1211 278.801H82.6562V277.787H90.1211V278.801ZM86.9102 280.242H85.6211V278.273H86.9102V280.242ZM89.9746 284.473H88.6562V282.434H82.5098V281.396H89.9746V284.473Z" fill="#38A2FF"/>
<path d="M32.5107 301.554H18.8467V299.373H32.5107V301.554ZM21.5752 300.812H18.8467V295.291H21.5752V300.812ZM34.4229 305.442H16.5908V303.272H34.4229V305.442ZM26.8604 304.852H24.1104V300.974H26.8604V304.852ZM32.5107 308.923H18.4814V306.796H32.5107V308.923ZM32.7148 314.262H18.3203V312.06H32.7148V314.262ZM23.874 313.166H21.1562V307.344H23.874V313.166ZM29.8359 313.166H27.1504V307.344H29.8359V313.166ZM40.8682 296.29C41.8564 296.29 42.7373 296.576 43.5107 297.149C44.2913 297.722 44.9036 298.535 45.3477 299.588C45.7988 300.641 46.0244 301.865 46.0244 303.262C46.0244 304.665 45.7988 305.894 45.3477 306.946C44.9036 307.999 44.2913 308.812 43.5107 309.385C42.7373 309.951 41.8564 310.233 40.8682 310.233C39.8727 310.233 38.9811 309.951 38.1934 309.385C37.4128 308.812 36.8005 307.999 36.3564 306.946C35.9196 305.894 35.7012 304.665 35.7012 303.262C35.7012 301.865 35.9196 300.641 36.3564 299.588C36.8005 298.535 37.4128 297.722 38.1934 297.149C38.9811 296.576 39.8727 296.29 40.8682 296.29ZM40.8682 298.771C40.3669 298.764 39.9229 298.936 39.5361 299.287C39.1566 299.638 38.863 300.15 38.6553 300.823C38.4476 301.496 38.3438 302.309 38.3438 303.262C38.3438 304.214 38.4476 305.027 38.6553 305.7C38.863 306.373 39.1602 306.885 39.5469 307.236C39.9336 307.58 40.374 307.752 40.8682 307.752C41.3766 307.752 41.8206 307.58 42.2002 307.236C42.5798 306.885 42.8698 306.373 43.0703 305.7C43.278 305.027 43.3818 304.214 43.3818 303.262C43.3818 302.302 43.278 301.486 43.0703 300.812C42.8698 300.139 42.5798 299.631 42.2002 299.287C41.8206 298.936 41.3766 298.764 40.8682 298.771ZM51.0195 314.477H48.2695V294.904H51.0195V314.477ZM53.9199 304.583H50.418V302.295H53.9199V304.583ZM61.6113 300.243C61.6113 301.783 61.3929 303.251 60.9561 304.647C60.5264 306.037 59.8926 307.272 59.0547 308.354C58.2168 309.435 57.207 310.251 56.0254 310.803L54.457 308.644C55.5098 308.164 56.4049 307.48 57.1426 306.592C57.8874 305.704 58.446 304.712 58.8184 303.616C59.1979 302.513 59.3877 301.389 59.3877 300.243V297.966H61.6113V300.243ZM62.1807 300.243C62.1807 301.332 62.3669 302.395 62.7393 303.434C63.1117 304.472 63.6667 305.41 64.4043 306.248C65.1419 307.079 66.0371 307.713 67.0898 308.149L65.6074 310.298C64.3971 309.775 63.373 309.005 62.5352 307.988C61.6973 306.971 61.0671 305.8 60.6445 304.476C60.2292 303.144 60.0215 301.733 60.0215 300.243V297.966H62.1807V300.243ZM66.2842 299.051H55.2412V296.816H66.2842V299.051ZM70.9785 314.477H68.1963V294.904H70.9785V314.477ZM89.5088 302.402H75.834V300.265H89.5088V302.402ZM91.4854 306.646H73.6104V304.497H91.4854V306.646ZM78.5732 301.339H75.834V295.613H78.5732V301.339ZM89.627 314.047H75.6621V311.834H89.627V314.047ZM78.4121 312.468H75.6621V308.246H78.4121V312.468ZM22.3164 327.406C22.3164 328.538 22.1553 329.626 21.833 330.672C21.5179 331.71 21.0202 332.638 20.3398 333.454C19.6595 334.271 18.8109 334.89 17.7939 335.312L16.3115 333.196C17.1924 332.817 17.9193 332.315 18.4922 331.692C19.0651 331.069 19.4876 330.393 19.7598 329.662C20.0391 328.924 20.1787 328.173 20.1787 327.406V325.107H22.3164V327.406ZM22.832 327.406C22.832 328.137 22.9645 328.835 23.2295 329.501C23.4945 330.167 23.9027 330.769 24.4541 331.306C25.0055 331.843 25.693 332.272 26.5166 332.595L25.0664 334.689C24.0781 334.31 23.2546 333.755 22.5957 333.024C21.944 332.287 21.4606 331.438 21.1455 330.479C20.8376 329.519 20.6836 328.495 20.6836 327.406V325.107H22.832V327.406ZM33.3809 335.903H30.7705V323.947H33.3809V335.903ZM31.4902 330.94H28.3535V328.717H31.4902V330.94ZM29.1377 335.291H26.6025V324.28H29.1377V335.291ZM26.6992 336.172C28.0742 336.172 29.2702 336.315 30.2871 336.602C31.3112 336.888 32.099 337.307 32.6504 337.858C33.2018 338.403 33.4775 339.054 33.4775 339.813C33.4775 340.565 33.2018 341.214 32.6504 341.758C32.099 342.309 31.3112 342.732 30.2871 343.025C29.2702 343.326 28.0742 343.477 26.6992 343.477C25.3314 343.477 24.1354 343.326 23.1113 343.025C22.0944 342.732 21.3102 342.309 20.7588 341.758C20.2074 341.214 19.9316 340.565 19.9316 339.813C19.9316 339.054 20.2074 338.403 20.7588 337.858C21.3102 337.307 22.0944 336.888 23.1113 336.602C24.1283 336.315 25.3242 336.172 26.6992 336.172ZM26.6992 338.213C25.847 338.213 25.1201 338.274 24.5186 338.396C23.917 338.51 23.4587 338.689 23.1436 338.933C22.8356 339.169 22.6816 339.463 22.6816 339.813C22.6816 340.164 22.8356 340.458 23.1436 340.694C23.4587 340.931 23.9134 341.11 24.5078 341.231C25.1094 341.353 25.8398 341.414 26.6992 341.414C27.5586 341.414 28.2855 341.353 28.8799 341.231C29.4814 341.11 29.9398 340.931 30.2549 340.694C30.57 340.458 30.7275 340.164 30.7275 339.813C30.7275 339.463 30.57 339.169 30.2549 338.933C29.9398 338.689 29.4779 338.51 28.8691 338.396C28.2676 338.274 27.5443 338.213 26.6992 338.213ZM42.3291 327.256C42.3291 328.574 42.1214 329.795 41.7061 330.919C41.2979 332.043 40.6784 333.024 39.8477 333.862C39.0241 334.693 38.0072 335.32 36.7969 335.742L35.2715 333.583C36.3457 333.246 37.2373 332.752 37.9463 332.101C38.6624 331.449 39.1888 330.708 39.5254 329.877C39.8691 329.046 40.041 328.173 40.041 327.256V325.129H42.3291V327.256ZM42.8018 327.277C42.8018 328.144 42.9665 328.964 43.2959 329.737C43.6253 330.511 44.1338 331.202 44.8213 331.811C45.516 332.419 46.3717 332.892 47.3887 333.229L45.9492 335.377C44.7747 334.969 43.7865 334.367 42.9844 333.572C42.1895 332.777 41.5915 331.843 41.1904 330.769C40.7965 329.694 40.5996 328.531 40.5996 327.277V325.129H42.8018V327.277ZM51.1055 338.256H48.3662V323.937H51.1055V338.256ZM53.748 331.896H50.3105V329.598H53.748V331.896ZM51.8359 343.144H38.4189V340.931H51.8359V343.144ZM41.2119 342.102H38.4189V336.838H41.2119V342.102ZM61.4717 326.719C61.4717 328.058 61.264 329.3 60.8486 330.446C60.4404 331.585 59.821 332.577 58.9902 333.422C58.1595 334.267 57.1247 334.904 55.8857 335.334L54.4248 333.132C55.5062 332.788 56.4049 332.29 57.1211 331.639C57.8444 330.98 58.3779 330.231 58.7217 329.394C59.0654 328.556 59.2373 327.664 59.2373 326.719V324.946H61.4717V326.719ZM61.998 326.579C61.998 327.481 62.1556 328.33 62.4707 329.125C62.7858 329.913 63.2799 330.611 63.9531 331.22C64.6263 331.821 65.4678 332.28 66.4775 332.595L65.0059 334.732C63.8385 334.324 62.8646 333.726 62.084 332.938C61.3105 332.151 60.734 331.22 60.3545 330.146C59.9821 329.071 59.7959 327.882 59.7959 326.579V324.946H61.998V326.579ZM71.0859 335.377H68.3574V323.904H71.0859V335.377ZM64.4043 335.893C65.8008 335.893 67.0039 336.039 68.0137 336.333C69.0234 336.627 69.7969 337.06 70.334 337.633C70.8783 338.206 71.1504 338.893 71.1504 339.695C71.1504 340.483 70.8783 341.163 70.334 341.736C69.7969 342.309 69.0234 342.743 68.0137 343.036C67.0039 343.33 65.8008 343.477 64.4043 343.477C63.0221 343.477 61.8262 343.33 60.8164 343.036C59.8138 342.743 59.0404 342.309 58.4961 341.736C57.959 341.163 57.6904 340.483 57.6904 339.695C57.6904 338.893 57.959 338.206 58.4961 337.633C59.0404 337.06 59.8138 336.627 60.8164 336.333C61.8262 336.039 63.0221 335.893 64.4043 335.893ZM64.4043 338.009C63.5449 338.009 62.818 338.07 62.2236 338.191C61.6292 338.313 61.1781 338.499 60.8701 338.75C60.5622 339.001 60.4082 339.316 60.4082 339.695C60.4082 340.046 60.5622 340.347 60.8701 340.598C61.1781 340.841 61.6292 341.027 62.2236 341.156C62.818 341.285 63.5449 341.35 64.4043 341.35C65.2852 341.35 66.0228 341.285 66.6172 341.156C67.2116 341.027 67.6592 340.841 67.96 340.598C68.2607 340.347 68.4111 340.046 68.4111 339.695C68.4111 339.316 68.2607 339.001 67.96 338.75C67.6592 338.499 67.2116 338.313 66.6172 338.191C66.0228 338.07 65.2852 338.009 64.4043 338.009ZM68.7334 329.748H64.6836V327.514H68.7334V329.748Z" fill="white"/>
<path opacity="0.8" d="M16 434.5C16 432.291 17.7909 430.5 20 430.5H40.25C42.4591 430.5 44.25 432.291 44.25 434.5V459.5H16V434.5Z" fill="url(#paint7_linear_382_3691)"/>
<path opacity="0.8" d="M51.25 415.5C51.25 413.291 53.0409 411.5 55.25 411.5H75.5C77.7091 411.5 79.5 413.291 79.5 415.5V459.5H51.25V415.5Z" fill="url(#paint8_linear_382_3691)"/>
<path opacity="0.9" d="M86.5 383.5C86.5 381.291 88.2909 379.5 90.5 379.5H110.75C112.959 379.5 114.75 381.291 114.75 383.5V459.5H86.5V383.5Z" fill="url(#paint9_linear_382_3691)"/>
<path d="M121.75 338.5C121.75 336.291 123.541 334.5 125.75 334.5H146C148.209 334.5 150 336.291 150 338.5V459.5H121.75V338.5Z" fill="url(#paint10_linear_382_3691)"/>
<rect x="178" y="370" width="152" height="113" rx="8" fill="#292E3D"/>
<path d="M203.492 395.977H202.238V389.449H203.492V395.977ZM201.482 395.959H200.252V389.637H201.482V395.959ZM200.768 395.525H198.564V394.635H200.768V395.525ZM197.768 395.924H196.514V393.891H197.768V395.924ZM194.281 393.434C195.266 393.434 196.234 393.414 197.188 393.375C198.145 393.336 199.002 393.26 199.76 393.146L199.854 394.014C199.076 394.182 198.229 394.293 197.311 394.348C196.396 394.398 195.432 394.424 194.416 394.424L194.281 393.434ZM197.352 397.131H202.186V396.328H203.492V399.908H196.068V396.328H197.352V397.131ZM202.186 398.895V398.139H197.352V398.895H202.186ZM197.088 389.818C197.553 389.818 197.959 389.883 198.307 390.012C198.658 390.137 198.932 390.318 199.127 390.557C199.322 390.791 199.42 391.072 199.42 391.4C199.42 391.709 199.322 391.984 199.127 392.227C198.932 392.465 198.658 392.65 198.307 392.783C197.955 392.912 197.549 392.977 197.088 392.977C196.635 392.977 196.232 392.912 195.881 392.783C195.529 392.65 195.256 392.465 195.061 392.227C194.865 391.984 194.768 391.709 194.768 391.4C194.768 391.072 194.865 390.791 195.061 390.557C195.256 390.318 195.527 390.137 195.875 390.012C196.223 389.883 196.627 389.818 197.088 389.818ZM197.088 390.732C196.85 390.729 196.646 390.752 196.479 390.803C196.311 390.85 196.18 390.924 196.086 391.025C195.996 391.127 195.951 391.252 195.951 391.4C195.951 391.545 195.996 391.666 196.086 391.764C196.18 391.861 196.311 391.936 196.479 391.986C196.646 392.033 196.85 392.057 197.088 392.057C197.334 392.057 197.541 392.033 197.709 391.986C197.877 391.936 198.01 391.861 198.107 391.764C198.205 391.666 198.254 391.545 198.254 391.4C198.254 391.252 198.205 391.127 198.107 391.025C198.01 390.924 197.875 390.85 197.703 390.803C197.531 390.752 197.326 390.729 197.088 390.732ZM215.492 392.959H213.318V391.887H215.492V392.959ZM216.447 395.227H215.152V389.449H216.447V395.227ZM210.77 396.779H215.152V395.678H216.447V399.908H209.475V395.678H210.77V396.779ZM215.152 398.859V397.793H210.77V398.859H215.152ZM211.215 391.031C211.215 391.691 211.098 392.314 210.863 392.9C210.633 393.482 210.293 393.994 209.844 394.436C209.398 394.873 208.861 395.199 208.232 395.414L207.559 394.389C208.105 394.197 208.574 393.93 208.965 393.586C209.355 393.238 209.65 392.846 209.85 392.408C210.049 391.967 210.148 391.508 210.148 391.031V390.27H211.215V391.031ZM211.473 391.043C211.473 391.473 211.568 391.895 211.76 392.309C211.951 392.719 212.234 393.09 212.609 393.422C212.984 393.75 213.436 394.004 213.963 394.184L213.312 395.186C212.695 394.971 212.17 394.656 211.736 394.242C211.303 393.828 210.973 393.346 210.746 392.795C210.523 392.244 210.412 391.66 210.412 391.043V390.27H211.473V391.043ZM213.67 391.049H207.939V389.988H213.67V391.049ZM227.615 395.707H217.959V394.652H227.615V395.707ZM223.408 395.115H222.125V393.182H223.408V395.115ZM223.209 390.023C223.209 390.66 223.029 391.24 222.67 391.764C222.311 392.283 221.809 392.719 221.164 393.07C220.52 393.422 219.783 393.662 218.955 393.791L218.48 392.766C219.195 392.676 219.828 392.494 220.379 392.221C220.93 391.943 221.354 391.613 221.65 391.23C221.951 390.848 222.102 390.445 222.102 390.023V389.625H223.209V390.023ZM223.426 390.023C223.426 390.457 223.574 390.865 223.871 391.248C224.172 391.627 224.6 391.953 225.154 392.227C225.709 392.496 226.346 392.676 227.064 392.766L226.555 393.791C225.727 393.662 224.992 393.424 224.352 393.076C223.711 392.725 223.211 392.287 222.852 391.764C222.496 391.24 222.318 390.66 222.318 390.023V389.625H223.426V390.023ZM226.426 400.031H225.119V397.57H219.025V396.551H226.426V400.031ZM232.086 391.992C232.086 392.875 231.965 393.709 231.723 394.494C231.484 395.275 231.135 395.963 230.674 396.557C230.213 397.15 229.658 397.602 229.01 397.91L228.213 396.82C228.787 396.566 229.285 396.193 229.707 395.701C230.129 395.205 230.451 394.637 230.674 393.996C230.9 393.352 231.014 392.684 231.014 391.992V390.299H232.086V391.992ZM232.326 391.992C232.326 392.648 232.436 393.283 232.654 393.896C232.873 394.51 233.189 395.057 233.604 395.537C234.021 396.018 234.51 396.379 235.068 396.621L234.295 397.664C233.67 397.371 233.127 396.939 232.666 396.369C232.205 395.795 231.854 395.133 231.611 394.383C231.369 393.633 231.248 392.836 231.248 391.992V390.299H232.326V391.992ZM237.137 400.061H235.818V389.449H237.137V400.061ZM247.051 397.09H245.732V389.449H247.051V397.09ZM248.533 393.58H246.664V392.502H248.533V393.58ZM244.174 390.252C244.174 391.178 243.979 392.018 243.588 392.771C243.197 393.525 242.629 394.174 241.883 394.717C241.141 395.26 240.246 395.688 239.199 396L238.648 394.963C239.527 394.705 240.273 394.373 240.887 393.967C241.504 393.557 241.973 393.09 242.293 392.566C242.613 392.043 242.773 391.482 242.773 390.885V390.252H244.174ZM243.488 391.324H239.105V390.252H243.488V391.324ZM247.455 399.844H240.248V398.777H247.455V399.844ZM241.561 399.24H240.248V396.311H241.561V399.24Z" fill="#38A2FF"/>
<path d="M201.068 428.215C199.908 428.215 198.863 428.025 197.932 427.646C197.008 427.266 196.285 426.74 195.762 426.066C195.239 425.393 194.978 424.641 194.978 423.811C194.978 423.173 195.128 422.579 195.429 422.027C195.729 421.469 196.138 421.01 196.653 420.652C197.176 420.294 197.756 420.069 198.394 419.976V419.857C197.849 419.75 197.362 419.535 196.933 419.213C196.503 418.883 196.166 418.475 195.923 417.988C195.679 417.501 195.558 416.979 195.558 416.42C195.558 415.625 195.798 414.909 196.277 414.271C196.757 413.627 197.416 413.126 198.254 412.768C199.092 412.41 200.03 412.23 201.068 412.23C202.114 412.23 203.056 412.41 203.894 412.768C204.739 413.126 205.397 413.627 205.87 414.271C206.35 414.909 206.59 415.625 206.59 416.42C206.59 416.979 206.465 417.501 206.214 417.988C205.97 418.475 205.634 418.883 205.204 419.213C204.782 419.535 204.295 419.75 203.743 419.857V419.976C204.381 420.069 204.957 420.294 205.473 420.652C205.995 421.01 206.411 421.469 206.719 422.027C207.027 422.579 207.181 423.173 207.181 423.811C207.181 424.641 206.916 425.393 206.386 426.066C205.863 426.74 205.136 427.266 204.205 427.646C203.281 428.025 202.236 428.215 201.068 428.215ZM201.068 425.755C201.605 425.755 202.082 425.658 202.497 425.465C202.912 425.271 203.235 425.003 203.464 424.659C203.693 424.315 203.808 423.929 203.808 423.499C203.808 423.048 203.689 422.643 203.453 422.285C203.217 421.927 202.891 421.648 202.476 421.447C202.06 421.247 201.591 421.146 201.068 421.146C200.553 421.146 200.087 421.247 199.672 421.447C199.257 421.648 198.931 421.927 198.694 422.285C198.458 422.643 198.343 423.048 198.351 423.499C198.343 423.929 198.454 424.315 198.684 424.659C198.913 425.003 199.235 425.271 199.65 425.465C200.066 425.658 200.538 425.755 201.068 425.755ZM201.068 418.858C201.52 418.858 201.924 418.769 202.282 418.59C202.647 418.404 202.93 418.153 203.131 417.838C203.331 417.516 203.432 417.154 203.432 416.753C203.432 416.345 203.331 415.983 203.131 415.668C202.938 415.353 202.658 415.109 202.293 414.938C201.935 414.758 201.527 414.669 201.068 414.669C200.617 414.669 200.209 414.758 199.844 414.938C199.486 415.109 199.206 415.353 199.006 415.668C198.812 415.983 198.716 416.345 198.716 416.753C198.716 417.154 198.816 417.516 199.017 417.838C199.224 418.153 199.507 418.404 199.865 418.59C200.223 418.769 200.624 418.858 201.068 418.858ZM209.34 425.669L214.937 420.523C215.488 419.993 215.918 419.557 216.226 419.213C216.534 418.862 216.766 418.511 216.924 418.16C217.089 417.802 217.171 417.423 217.171 417.021C217.171 416.577 217.063 416.187 216.849 415.851C216.634 415.507 216.34 415.245 215.968 415.066C215.595 414.887 215.173 414.798 214.7 414.798C214.22 414.798 213.794 414.895 213.422 415.088C213.057 415.281 212.774 415.564 212.573 415.937C212.38 416.302 212.283 416.728 212.283 417.215H209.211C209.211 416.219 209.44 415.346 209.898 414.594C210.364 413.835 211.012 413.251 211.843 412.843C212.681 412.435 213.644 412.23 214.732 412.23C215.828 412.23 216.795 412.424 217.633 412.811C218.471 413.197 219.119 413.738 219.577 414.433C220.043 415.127 220.275 415.922 220.275 416.817C220.275 417.426 220.157 418.013 219.921 418.579C219.692 419.145 219.284 419.771 218.696 420.459C218.116 421.146 217.289 421.977 216.215 422.951L213.841 425.239V425.347H220.501V428H209.351L209.34 425.669ZM226.86 420.223C226.101 420.215 225.453 420.04 224.916 419.696C224.386 419.353 223.981 418.869 223.702 418.246C223.423 417.616 223.283 416.893 223.283 416.076C223.283 415.253 223.426 414.526 223.713 413.896C223.999 413.265 224.411 412.778 224.948 412.435C225.485 412.084 226.123 411.908 226.86 411.908C227.634 411.908 228.289 412.08 228.826 412.424C229.363 412.768 229.768 413.255 230.04 413.885C230.312 414.508 230.448 415.238 230.448 416.076C230.448 416.9 230.309 417.623 230.029 418.246C229.757 418.869 229.353 419.353 228.815 419.696C228.278 420.04 227.627 420.215 226.86 420.223ZM226.86 418.3C227.168 418.3 227.426 418.207 227.634 418.021C227.849 417.834 228.006 417.576 228.106 417.247C228.207 416.918 228.257 416.527 228.257 416.076C228.257 415.611 228.207 415.21 228.106 414.873C228.013 414.536 227.859 414.275 227.645 414.089C227.437 413.903 227.175 413.817 226.86 413.831C226.574 413.824 226.327 413.917 226.119 414.11C225.911 414.297 225.754 414.558 225.646 414.895C225.539 415.231 225.485 415.625 225.485 416.076C225.485 416.52 225.539 416.91 225.646 417.247C225.754 417.576 225.911 417.834 226.119 418.021C226.327 418.207 226.574 418.3 226.86 418.3ZM237.366 428.516C236.607 428.508 235.959 428.333 235.422 427.989C234.885 427.646 234.48 427.162 234.208 426.539C233.936 425.916 233.8 425.196 233.8 424.38C233.8 423.549 233.939 422.819 234.219 422.188C234.505 421.558 234.917 421.071 235.454 420.728C235.991 420.377 236.629 420.201 237.366 420.201C238.132 420.201 238.784 420.373 239.321 420.717C239.866 421.061 240.274 421.548 240.546 422.178C240.818 422.808 240.954 423.542 240.954 424.38C240.954 425.196 240.814 425.916 240.535 426.539C240.256 427.162 239.848 427.646 239.311 427.989C238.773 428.333 238.125 428.508 237.366 428.516ZM237.366 426.593C237.674 426.593 237.932 426.503 238.14 426.324C238.354 426.138 238.508 425.88 238.602 425.551C238.702 425.221 238.752 424.831 238.752 424.38C238.752 423.907 238.702 423.503 238.602 423.166C238.508 422.829 238.358 422.568 238.15 422.382C237.95 422.196 237.688 422.11 237.366 422.124C237.08 422.117 236.829 422.21 236.614 422.403C236.407 422.597 236.249 422.862 236.142 423.198C236.034 423.535 235.98 423.929 235.98 424.38C235.98 424.824 236.034 425.214 236.142 425.551C236.249 425.88 236.407 426.138 236.614 426.324C236.822 426.503 237.073 426.593 237.366 426.593ZM236.195 412.445H238.612L227.913 428H225.496L236.195 412.445ZM210.092 450.34H207.353V439.404H210.092V450.34ZM212.734 445.957H209.318V443.701H212.734V445.957ZM204.613 440.575C204.613 442.287 204.259 443.819 203.55 445.173C202.848 446.519 201.813 447.665 200.445 448.61C199.077 449.549 197.412 450.279 195.45 450.802L194.365 448.61C195.955 448.216 197.298 447.687 198.394 447.021C199.489 446.347 200.313 445.577 200.864 444.711C201.416 443.837 201.691 442.899 201.691 441.896V440.575H204.613ZM203.346 442.745H195.332V440.575H203.346V442.745ZM210.092 458.751H197.309V451.092H210.092V458.751ZM200.026 456.592H207.385V453.305H200.026V456.592ZM231.479 456.646H213.604V454.454H231.479V456.646ZM223.799 455.034H221.07V450.018H223.799V455.034ZM223.369 441.939C223.369 443.322 223.036 444.621 222.37 445.839C221.711 447.049 220.762 448.077 219.523 448.922C218.285 449.767 216.841 450.343 215.194 450.651L214.013 448.363C215.445 448.141 216.684 447.701 217.729 447.042C218.782 446.376 219.584 445.599 220.136 444.711C220.687 443.816 220.963 442.892 220.963 441.939V440.554H223.369V441.939ZM223.874 441.939C223.874 442.899 224.15 443.826 224.701 444.722C225.26 445.61 226.065 446.383 227.118 447.042C228.178 447.701 229.428 448.141 230.867 448.363L229.696 450.651C228.028 450.336 226.574 449.763 225.335 448.933C224.103 448.102 223.154 447.085 222.488 445.882C221.829 444.672 221.5 443.357 221.5 441.939V440.554H223.874V441.939Z" fill="white"/>
<mask id="path-51-inside-1_382_3691" fill="white">
<path fill-rule="evenodd" clip-rule="evenodd" d="M279.822 399.171C279.822 395.161 278.8 391.36 276.998 388.131C276.808 387.79 277.05 387.36 277.441 387.36H301.528C301.683 387.36 301.829 387.43 301.92 387.556C303.903 390.299 304.667 395.216 304.667 399.171V439.276C304.667 439.552 304.891 439.776 305.167 439.776H314.338C314.784 439.776 315.007 440.317 314.69 440.631L292.671 462.464C292.282 462.85 291.653 462.85 291.263 462.464L269.245 440.631C268.928 440.317 269.15 439.776 269.597 439.776H279.322C279.598 439.776 279.822 439.552 279.822 439.276V399.171Z"/>
</mask>
<path fill-rule="evenodd" clip-rule="evenodd" d="M279.822 399.171C279.822 395.161 278.8 391.36 276.998 388.131C276.808 387.79 277.05 387.36 277.441 387.36H301.528C301.683 387.36 301.829 387.43 301.92 387.556C303.903 390.299 304.667 395.216 304.667 399.171V439.276C304.667 439.552 304.891 439.776 305.167 439.776H314.338C314.784 439.776 315.007 440.317 314.69 440.631L292.671 462.464C292.282 462.85 291.653 462.85 291.263 462.464L269.245 440.631C268.928 440.317 269.15 439.776 269.597 439.776H279.322C279.598 439.776 279.822 439.552 279.822 439.276V399.171Z" fill="url(#paint11_linear_382_3691)"/>
<path d="M292.671 462.464L291.967 461.754L291.967 461.754L292.671 462.464ZM291.263 462.464L291.967 461.754L291.967 461.754L291.263 462.464ZM269.245 440.631L269.949 439.921L269.245 440.631ZM301.92 387.556L302.73 386.97L301.92 387.556ZM314.69 440.631L313.986 439.921L314.69 440.631ZM276.998 388.131L276.125 388.618L276.998 388.131ZM276.125 388.618C277.843 391.698 278.822 395.33 278.822 399.171H280.822C280.822 394.991 279.757 391.023 277.872 387.644L276.125 388.618ZM301.528 386.36H277.441V388.36H301.528V386.36ZM305.667 399.171C305.667 397.135 305.471 394.846 305.015 392.701C304.563 390.572 303.838 388.503 302.73 386.97L301.109 388.141C301.984 389.352 302.633 391.113 303.059 393.117C303.481 395.105 303.667 397.252 303.667 399.171H305.667ZM305.667 439.276V399.171H303.667V439.276H305.667ZM305.167 440.776H314.338V438.776H305.167V440.776ZM313.986 439.921L291.967 461.754L293.375 463.174L315.394 441.341L313.986 439.921ZM291.967 461.754L291.967 461.754L290.559 463.174C291.339 463.947 292.596 463.947 293.375 463.174L291.967 461.754ZM291.967 461.754L269.949 439.921L268.541 441.341L290.559 463.174L291.967 461.754ZM269.597 440.776H279.322V438.776H269.597V440.776ZM278.822 399.171V439.276H280.822V399.171H278.822ZM279.322 440.776C280.15 440.776 280.822 440.105 280.822 439.276H278.822C278.822 439 279.046 438.776 279.322 438.776V440.776ZM269.949 439.921C270.266 440.235 270.043 440.776 269.597 440.776V438.776C268.258 438.776 267.59 440.398 268.541 441.341L269.949 439.921ZM303.667 439.276C303.667 440.105 304.338 440.776 305.167 440.776V438.776C305.443 438.776 305.667 439 305.667 439.276H303.667ZM301.528 388.36C301.381 388.36 301.218 388.292 301.109 388.141L302.73 386.97C302.44 386.569 301.984 386.36 301.528 386.36V388.36ZM314.338 440.776C313.891 440.776 313.669 440.235 313.986 439.921L315.394 441.341C316.345 440.398 315.677 438.776 314.338 438.776V440.776ZM277.872 387.644C278.036 387.938 277.848 388.36 277.441 388.36V386.36C276.251 386.36 275.58 387.641 276.125 388.618L277.872 387.644Z" fill="url(#paint12_linear_382_3691)" fill-opacity="0.2" mask="url(#path-51-inside-1_382_3691)"/>
<g clip-path="url(#clip0_382_3691)">
<rect x="178" y="248" width="152" height="110" rx="8" fill="#292E3D"/>
<g filter="url(#filter3_d_382_3691)">
<rect x="219.053" y="272.052" width="5.89474" height="5.89474" fill="#576A87"/>
<path d="M214.632 279.421C214.632 277.793 215.951 276.474 217.579 276.474H226.421C228.049 276.474 229.368 277.793 229.368 279.421V282.368H214.632V279.421Z" fill="#41526D"/>
<rect x="216.105" y="269.105" width="11.7895" height="4.42105" rx="2.21053" fill="#41526D"/>
<circle cx="222" cy="308.895" r="28" fill="#617B98"/>
<g style="mix-blend-mode:overlay" opacity="0.7">
<circle cx="222" cy="308.895" r="28" fill="url(#paint13_linear_382_3691)"/>
</g>
<circle cx="222" cy="308.895" r="22.1053" fill="url(#paint14_linear_382_3691)"/>
<path d="M222 286.79C226.688 286.79 231.255 288.28 235.04 291.046L222 308.895L222 286.79Z" fill="white"/>
<rect x="229.086" y="296.909" width="2.94737" height="15.3144" rx="1.47368" transform="rotate(35.5054 229.086 296.909)" fill="#0188FF"/>
<rect x="220.526" y="289.737" width="2.94737" height="20.6316" rx="1.47368" fill="#0188FF"/>
<g filter="url(#filter4_d_382_3691)">
<circle cx="222" cy="308.895" r="3.68421" fill="#0F5A9E"/>
</g>
</g>
<path d="M272.648 278.031H271.359V267.449H272.648V278.031ZM274.283 272.746H272.355V271.674H274.283V272.746ZM270.539 270.121H264.299V269.072H270.539V270.121ZM267.451 270.807C267.963 270.807 268.42 270.914 268.822 271.129C269.229 271.34 269.547 271.635 269.777 272.014C270.008 272.393 270.123 272.822 270.123 273.303C270.123 273.779 270.008 274.209 269.777 274.592C269.547 274.971 269.229 275.266 268.822 275.477C268.42 275.688 267.963 275.793 267.451 275.793C266.943 275.793 266.486 275.688 266.08 275.477C265.674 275.266 265.355 274.971 265.125 274.592C264.898 274.209 264.785 273.779 264.785 273.303C264.785 272.822 264.898 272.393 265.125 272.014C265.355 271.635 265.674 271.34 266.08 271.129C266.486 270.914 266.943 270.807 267.451 270.807ZM267.451 271.879C267.182 271.879 266.938 271.938 266.719 272.055C266.504 272.172 266.334 272.338 266.209 272.553C266.088 272.768 266.027 273.018 266.027 273.303C266.027 273.584 266.088 273.832 266.209 274.047C266.334 274.262 266.504 274.428 266.719 274.545C266.938 274.658 267.182 274.715 267.451 274.715C267.729 274.715 267.975 274.658 268.189 274.545C268.404 274.428 268.572 274.262 268.693 274.047C268.814 273.832 268.875 273.584 268.875 273.303C268.875 273.018 268.814 272.768 268.693 272.553C268.572 272.338 268.404 272.172 268.189 272.055C267.975 271.938 267.729 271.879 267.451 271.879ZM268.096 269.494H266.801V267.602H268.096V269.494ZM283.26 270.83H277.189V272.506H275.871V269.834H281.924V268.861H275.848V267.818H283.26V270.83ZM283.5 272.922H275.871V271.879H283.5V272.922ZM284.396 274.867H274.717V273.824H284.396V274.867ZM280.184 278.061H278.883V274.199H280.184V278.061ZM296.25 270.273H294.064V269.236H296.25V270.273ZM296.25 272.236H294.064V271.188H296.25V272.236ZM293.871 269.242H288.24V268.188H293.871V269.242ZM287.959 272.4C289.143 272.396 290.242 272.379 291.258 272.348C292.277 272.312 293.223 272.242 294.094 272.137L294.146 273.104C293.256 273.248 292.307 273.346 291.299 273.396C290.291 273.443 289.227 273.467 288.105 273.467L287.959 272.4ZM290.426 272.764H289.166V269.049H290.426V272.764ZM292.928 272.764H291.68V269.049H292.928V272.764ZM296.824 273.941H295.523V267.449H296.824V273.941ZM293.244 274.129C293.994 274.129 294.641 274.205 295.184 274.357C295.727 274.51 296.141 274.732 296.426 275.025C296.715 275.318 296.859 275.67 296.859 276.08C296.859 276.482 296.715 276.83 296.426 277.123C296.137 277.416 295.721 277.639 295.178 277.791C294.639 277.947 293.994 278.025 293.244 278.025C292.498 278.025 291.854 277.947 291.311 277.791C290.768 277.639 290.352 277.416 290.062 277.123C289.777 276.83 289.635 276.482 289.635 276.08C289.635 275.67 289.779 275.318 290.068 275.025C290.361 274.732 290.777 274.51 291.316 274.357C291.855 274.205 292.498 274.129 293.244 274.129ZM293.244 275.125C292.748 275.125 292.328 275.16 291.984 275.23C291.641 275.301 291.379 275.408 291.199 275.553C291.02 275.697 290.93 275.873 290.93 276.08C290.93 276.283 291.02 276.457 291.199 276.602C291.379 276.742 291.641 276.85 291.984 276.924C292.328 276.994 292.748 277.029 293.244 277.029C293.74 277.029 294.162 276.994 294.51 276.924C294.857 276.85 295.119 276.742 295.295 276.602C295.471 276.457 295.559 276.283 295.559 276.08C295.559 275.869 295.469 275.693 295.289 275.553C295.113 275.408 294.852 275.301 294.504 275.23C294.16 275.16 293.74 275.125 293.244 275.125ZM306.258 269.014H299.508V267.982H306.258V269.014ZM308.01 272.951H298.33V271.902H308.01V272.951ZM302.812 275.348H301.529V272.564H302.812V275.348ZM306.82 268.844C306.82 269.504 306.803 270.096 306.768 270.619C306.732 271.143 306.643 271.734 306.498 272.395L305.221 272.26C305.314 271.811 305.383 271.389 305.426 270.994C305.473 270.6 305.5 270.252 305.508 269.951C305.516 269.65 305.52 269.281 305.52 268.844V267.982H306.82V268.844ZM307.107 277.844H299.414V276.777H307.107V277.844ZM300.709 276.994H299.414V274.439H300.709V276.994ZM305.484 275.348H304.219V272.564H305.484V275.348Z" fill="#38A2FF"/>
<path d="M270.939 306.215C269.88 306.215 268.92 306.018 268.061 305.624C267.201 305.23 266.524 304.682 266.03 303.98C265.543 303.279 265.289 302.491 265.268 301.617H268.394C268.429 302.018 268.562 302.373 268.791 302.681C269.027 302.989 269.332 303.232 269.704 303.411C270.084 303.583 270.495 303.669 270.939 303.669C271.469 303.669 271.942 303.551 272.357 303.314C272.78 303.078 273.109 302.752 273.346 302.337C273.582 301.914 273.7 301.438 273.7 300.908C273.7 300.357 273.578 299.873 273.335 299.458C273.099 299.035 272.766 298.706 272.336 298.47C271.913 298.226 271.43 298.104 270.886 298.104C270.306 298.097 269.815 298.201 269.414 298.416C269.013 298.631 268.694 298.96 268.458 299.404H265.525L266.374 290.445H275.945V293.099H269.038L268.608 297.02H268.727C269.027 296.626 269.457 296.307 270.016 296.063C270.574 295.82 271.187 295.698 271.853 295.698C272.791 295.698 273.639 295.917 274.398 296.354C275.165 296.783 275.759 297.388 276.182 298.169C276.611 298.95 276.823 299.834 276.815 300.822C276.823 301.854 276.576 302.781 276.074 303.604C275.58 304.421 274.889 305.062 274.001 305.527C273.113 305.986 272.092 306.215 270.939 306.215ZM285.044 306.215C283.891 306.208 282.845 305.953 281.907 305.452C280.969 304.951 280.21 304.131 279.63 302.992C279.05 301.854 278.76 300.382 278.76 298.577C278.76 296.851 279.021 295.362 279.544 294.108C280.074 292.848 280.819 291.888 281.778 291.229C282.745 290.563 283.873 290.23 285.162 290.23C286.186 290.23 287.099 290.427 287.901 290.821C288.711 291.215 289.362 291.756 289.856 292.443C290.351 293.131 290.651 293.904 290.759 294.764H287.568C287.482 294.398 287.328 294.083 287.106 293.818C286.892 293.546 286.619 293.342 286.29 293.206C285.961 293.07 285.585 293.002 285.162 293.002C284.467 293.002 283.88 293.202 283.4 293.604C282.928 293.997 282.566 294.563 282.315 295.301C282.065 296.038 281.936 296.923 281.929 297.954H282.058C282.301 297.496 282.623 297.105 283.024 296.783C283.433 296.454 283.895 296.203 284.41 296.031C284.933 295.852 285.477 295.763 286.043 295.763C286.967 295.763 287.801 295.978 288.546 296.407C289.291 296.837 289.871 297.435 290.286 298.201C290.709 298.96 290.92 299.823 290.92 300.79C290.92 301.836 290.673 302.77 290.179 303.594C289.692 304.417 289.001 305.062 288.105 305.527C287.217 305.986 286.197 306.215 285.044 306.215ZM285.022 303.669C285.545 303.669 286.014 303.547 286.43 303.304C286.852 303.053 287.182 302.716 287.418 302.294C287.661 301.864 287.783 301.395 287.783 300.887C287.783 300.364 287.665 299.891 287.429 299.469C287.192 299.046 286.867 298.717 286.451 298.48C286.036 298.244 285.567 298.126 285.044 298.126C284.528 298.126 284.059 298.248 283.637 298.491C283.214 298.735 282.881 299.068 282.638 299.49C282.394 299.913 282.265 300.382 282.251 300.897C282.258 301.392 282.38 301.85 282.616 302.272C282.86 302.695 283.189 303.035 283.604 303.293C284.027 303.544 284.5 303.669 285.022 303.669ZM310.396 300.607H292.521V298.459H310.396V300.607ZM303.048 303.766H300.341V299.598H303.048V303.766ZM308.43 307.644H294.604V305.431H308.43V307.644ZM297.333 306.365H294.604V302.219H297.333V306.365ZM297.516 291.09H305.357V289.049H308.086V297.084H294.809V289.049H297.516V291.09ZM305.357 294.925V293.12H297.516V294.925H305.357ZM280.103 323.603H275.247V321.443H280.103V323.603ZM271.348 320.187C271.348 321.304 271.133 322.374 270.703 323.398C270.273 324.423 269.636 325.321 268.791 326.095C267.953 326.868 266.94 327.438 265.751 327.803L264.408 325.676C265.432 325.339 266.295 324.877 266.997 324.29C267.699 323.703 268.225 323.051 268.576 322.335C268.927 321.619 269.103 320.903 269.103 320.187V319.059H271.348V320.187ZM271.863 320.219C271.863 320.906 272.028 321.579 272.357 322.238C272.687 322.89 273.188 323.481 273.861 324.011C274.535 324.534 275.358 324.942 276.332 325.235L275.054 327.384C273.879 327.04 272.884 326.51 272.067 325.794C271.258 325.078 270.649 324.24 270.241 323.28C269.833 322.321 269.629 321.3 269.629 320.219V319.059H271.863V320.219ZM275.752 320.358H265.139V318.167H275.752V320.358ZM281.048 327.373H278.33V317.404H281.048V327.373ZM281.048 333.421H270.821V335.924H268.061V331.412H278.33V330.295H268.039V328.125H281.048V333.421ZM281.628 336.783H268.061V334.646H281.628V336.783ZM301.651 322.228H298.257V320.015H301.651V322.228ZM301.651 326.492H298.257V324.215H301.651V326.492ZM299.105 328.952H296.366V317.404H299.105V328.952ZM299.105 336.977H296.366V331.96H285.946V329.736H299.105V336.977ZM289.083 318.5C290.086 318.493 290.992 318.693 291.801 319.102C292.617 319.51 293.258 320.076 293.724 320.799C294.196 321.522 294.433 322.342 294.433 323.259C294.433 324.168 294.2 324.992 293.734 325.729C293.269 326.46 292.628 327.033 291.812 327.448C291.002 327.856 290.093 328.061 289.083 328.061C288.073 328.061 287.164 327.856 286.354 327.448C285.545 327.033 284.904 326.46 284.432 325.729C283.959 324.992 283.723 324.168 283.723 323.259C283.723 322.342 283.959 321.526 284.432 320.81C284.904 320.086 285.549 319.521 286.365 319.112C287.182 318.697 288.088 318.493 289.083 318.5ZM289.083 320.82C288.575 320.82 288.116 320.917 287.708 321.11C287.307 321.304 286.992 321.583 286.763 321.948C286.534 322.313 286.419 322.75 286.419 323.259C286.419 323.767 286.534 324.208 286.763 324.58C286.992 324.945 287.307 325.228 287.708 325.429C288.116 325.622 288.575 325.719 289.083 325.719C289.591 325.719 290.046 325.622 290.447 325.429C290.855 325.228 291.174 324.945 291.403 324.58C291.64 324.208 291.758 323.767 291.758 323.259C291.758 322.75 291.64 322.313 291.403 321.948C291.174 321.583 290.859 321.304 290.458 321.11C290.057 320.917 289.599 320.82 289.083 320.82Z" fill="white"/>
</g>
<defs>
<filter id="filter0_d_382_3691" x="15.3347" y="98.7923" width="78.1716" height="85.1692" filterUnits="userSpaceOnUse" color-interpolation-filters="sRGB">
<feFlood flood-opacity="0" result="BackgroundImageFix"/>
<feColorMatrix in="SourceAlpha" type="matrix" values="0 0 0 0 0 0 0 0 0 0 0 0 0 0 0 0 0 0 127 0" result="hardAlpha"/>
<feOffset dy="3.46611"/>
<feGaussianBlur stdDeviation="4.33264"/>
<feComposite in2="hardAlpha" operator="out"/>
<feColorMatrix type="matrix" values="0 0 0 0 0 0 0 0 0 0 0 0 0 0 0 0 0 0 0.1 0"/>
<feBlend mode="normal" in2="BackgroundImageFix" result="effect1_dropShadow_382_3691"/>
<feBlend mode="normal" in="SourceGraphic" in2="effect1_dropShadow_382_3691" result="shape"/>
</filter>
<filter id="filter1_d_382_3691" x="30.0657" y="84.0613" width="72.2795" height="83.6255" filterUnits="userSpaceOnUse" color-interpolation-filters="sRGB">
<feFlood flood-opacity="0" result="BackgroundImageFix"/>
<feColorMatrix in="SourceAlpha" type="matrix" values="0 0 0 0 0 0 0 0 0 0 0 0 0 0 0 0 0 0 127 0" result="hardAlpha"/>
<feOffset dy="3.46611"/>
<feGaussianBlur stdDeviation="4.33264"/>
<feComposite in2="hardAlpha" operator="out"/>
<feColorMatrix type="matrix" values="0 0 0 0 0 0 0 0 0 0 0 0 0 0 0 0 0 0 0.15 0"/>
<feBlend mode="normal" in2="BackgroundImageFix" result="effect1_dropShadow_382_3691"/>
<feBlend mode="normal" in="SourceGraphic" in2="effect1_dropShadow_382_3691" result="shape"/>
</filter>
<filter id="filter2_d_382_3691" x="152.184" y="93.1711" width="180.332" height="109.192" filterUnits="userSpaceOnUse" color-interpolation-filters="sRGB">
<feFlood flood-opacity="0" result="BackgroundImageFix"/>
<feColorMatrix in="SourceAlpha" type="matrix" values="0 0 0 0 0 0 0 0 0 0 0 0 0 0 0 0 0 0 127 0" result="hardAlpha"/>
<feOffset dy="1.65442"/>
<feGaussianBlur stdDeviation="12.4082"/>
<feComposite in2="hardAlpha" operator="out"/>
<feColorMatrix type="matrix" values="0 0 0 0 0 0 0 0 0 0.421687 0 0 0 0 1 0 0 0 0.5 0"/>
<feBlend mode="normal" in2="BackgroundImageFix" result="effect1_dropShadow_382_3691"/>
<feBlend mode="normal" in="SourceGraphic" in2="effect1_dropShadow_382_3691" result="shape"/>
</filter>
<filter id="filter3_d_382_3691" x="164" y="239.105" width="116" height="127.79" filterUnits="userSpaceOnUse" color-interpolation-filters="sRGB">
<feFlood flood-opacity="0" result="BackgroundImageFix"/>
<feColorMatrix in="SourceAlpha" type="matrix" values="0 0 0 0 0 0 0 0 0 0 0 0 0 0 0 0 0 0 127 0" result="hardAlpha"/>
<feOffset/>
<feGaussianBlur stdDeviation="15"/>
<feComposite in2="hardAlpha" operator="out"/>
<feColorMatrix type="matrix" values="0 0 0 0 0 0 0 0 0 0.423529 0 0 0 0 1 0 0 0 0.2 0"/>
<feBlend mode="normal" in2="BackgroundImageFix" result="effect1_dropShadow_382_3691"/>
<feBlend mode="normal" in="SourceGraphic" in2="effect1_dropShadow_382_3691" result="shape"/>
</filter>
<filter id="filter4_d_382_3691" x="212.421" y="299.316" width="19.1579" height="19.1579" filterUnits="userSpaceOnUse" color-interpolation-filters="sRGB">
<feFlood flood-opacity="0" result="BackgroundImageFix"/>
<feColorMatrix in="SourceAlpha" type="matrix" values="0 0 0 0 0 0 0 0 0 0 0 0 0 0 0 0 0 0 127 0" result="hardAlpha"/>
<feOffset/>
<feGaussianBlur stdDeviation="2.94737"/>
<feComposite in2="hardAlpha" operator="out"/>
<feColorMatrix type="matrix" values="0 0 0 0 0.0588235 0 0 0 0 0.352941 0 0 0 0 0.619608 0 0 0 0.7 0"/>
<feBlend mode="normal" in2="BackgroundImageFix" result="effect1_dropShadow_382_3691"/>
<feBlend mode="normal" in="SourceGraphic" in2="effect1_dropShadow_382_3691" result="shape"/>
</filter>
<linearGradient id="paint0_linear_382_3691" x1="178.047" y1="120.274" x2="303.576" y2="180.013" gradientUnits="userSpaceOnUse">
<stop stop-color="white"/>
<stop offset="1" stop-color="white" stop-opacity="0.5"/>
</linearGradient>
<linearGradient id="paint1_linear_382_3691" x1="242.028" y1="112.183" x2="242.028" y2="99.8003" gradientUnits="userSpaceOnUse">
<stop stop-color="#D9D9D9" stop-opacity="0"/>
<stop offset="1" stop-color="#D9D9D9"/>
</linearGradient>
<linearGradient id="paint2_linear_382_3691" x1="189.562" y1="101.498" x2="295.145" y2="148.348" gradientUnits="userSpaceOnUse">
<stop stop-color="white"/>
<stop offset="1" stop-color="white" stop-opacity="0.5"/>
</linearGradient>
<linearGradient id="paint3_linear_382_3691" x1="242.028" y1="101.933" x2="242.028" y2="91.261" gradientUnits="userSpaceOnUse">
<stop stop-color="#D9D9D9" stop-opacity="0"/>
<stop offset="1" stop-color="#D9D9D9"/>
</linearGradient>
<linearGradient id="paint4_linear_382_3691" x1="196.813" y1="92.7241" x2="287.804" y2="133.1" gradientUnits="userSpaceOnUse">
<stop stop-color="white"/>
<stop offset="1" stop-color="white" stop-opacity="0.5"/>
</linearGradient>
<linearGradient id="paint5_linear_382_3691" x1="242.485" y1="121.39" x2="242.485" y2="108.603" gradientUnits="userSpaceOnUse">
<stop stop-color="#D9D9D9" stop-opacity="0"/>
<stop offset="1" stop-color="#D9D9D9"/>
</linearGradient>
<linearGradient id="paint6_linear_382_3691" x1="183.621" y1="111.173" x2="301.635" y2="163.539" gradientUnits="userSpaceOnUse">
<stop stop-color="white"/>
<stop offset="1" stop-color="white" stop-opacity="0.5"/>
</linearGradient>
<linearGradient id="paint7_linear_382_3691" x1="30.125" y1="430.5" x2="30.125" y2="459.5" gradientUnits="userSpaceOnUse">
<stop stop-color="#0088FF"/>
<stop offset="1" stop-color="#0088FF" stop-opacity="0"/>
</linearGradient>
<linearGradient id="paint8_linear_382_3691" x1="65.375" y1="411.5" x2="65.375" y2="459.5" gradientUnits="userSpaceOnUse">
<stop stop-color="#0088FF"/>
<stop offset="1" stop-color="#0088FF" stop-opacity="0"/>
</linearGradient>
<linearGradient id="paint9_linear_382_3691" x1="100.625" y1="379.5" x2="100.625" y2="459.5" gradientUnits="userSpaceOnUse">
<stop offset="0.2" stop-color="#0088FF"/>
<stop offset="1" stop-color="#0088FF" stop-opacity="0"/>
</linearGradient>
<linearGradient id="paint10_linear_382_3691" x1="135.875" y1="334.5" x2="135.875" y2="459.5" gradientUnits="userSpaceOnUse">
<stop stop-color="#ECF6FF"/>
<stop offset="0.04" stop-color="#B0DAFE"/>
<stop offset="0.35" stop-color="#0088FF"/>
<stop offset="1" stop-color="#0088FF" stop-opacity="0"/>
</linearGradient>
<linearGradient id="paint11_linear_382_3691" x1="291.967" y1="462.754" x2="291.967" y2="387.36" gradientUnits="userSpaceOnUse">
<stop stop-color="#ECF6FF"/>
<stop offset="0.04" stop-color="#B0DAFE"/>
<stop offset="0.4" stop-color="#0088FF"/>
<stop offset="0.98" stop-color="#0088FF" stop-opacity="0"/>
</linearGradient>
<linearGradient id="paint12_linear_382_3691" x1="291.967" y1="462.754" x2="291.967" y2="387.36" gradientUnits="userSpaceOnUse">
<stop stop-color="white"/>
<stop offset="1" stop-color="white" stop-opacity="0"/>
</linearGradient>
<linearGradient id="paint13_linear_382_3691" x1="203.625" y1="287.895" x2="238.625" y2="331.645" gradientUnits="userSpaceOnUse">
<stop stop-opacity="0.1"/>
<stop offset="1" stop-opacity="0.5"/>
</linearGradient>
<linearGradient id="paint14_linear_382_3691" x1="230.105" y1="289" x2="214.632" y2="329.526" gradientUnits="userSpaceOnUse">
<stop stop-color="#C0DEFC"/>
<stop offset="1" stop-color="#80BDF9"/>
</linearGradient>
<clipPath id="clip0_382_3691">
<rect x="178" y="248" width="152" height="110" rx="8" fill="white"/>
</clipPath>
</defs>
</svg>
