<svg width="375" height="296" viewBox="0 0 375 296" fill="none" xmlns="http://www.w3.org/2000/svg">
<g filter="url(#filter0_f_268_3421)">
<ellipse cx="187" cy="147.905" rx="98.9583" ry="60.744" fill="#0088FF" fill-opacity="0.3"/>
</g>
<g filter="url(#filter1_f_268_3421)">
<ellipse cx="187" cy="147.905" rx="123.264" ry="25.1654" fill="#0088FF" fill-opacity="0.3"/>
</g>
<g filter="url(#filter2_f_268_3421)">
<ellipse cx="187" cy="147.905" rx="125" ry="3.4713" fill="white" fill-opacity="0.3"/>
</g>
<g filter="url(#filter3_bii_268_3421)">
<path d="M161.407 89.6213C161.817 86.8104 164.671 85.0556 167.364 85.9583L254.375 115.123C256.465 115.823 257.757 117.92 257.416 120.098C251.267 159.312 238.563 197.211 219.838 232.21C218.798 234.153 216.503 235.048 214.413 234.347L127.402 205.183C124.709 204.28 123.489 201.16 124.856 198.669L152.58 148.166C152.842 147.689 153.016 147.169 153.095 146.631L161.407 89.6213Z" fill="#0A6CC2"/>
</g>
<g filter="url(#filter4_f_268_3421)">
<path fill-rule="evenodd" clip-rule="evenodd" d="M124.458 199.598C124.55 199.282 124.678 198.97 124.844 198.667L152.575 148.163C152.836 147.686 153.01 147.167 153.089 146.629L161.407 89.6195C161.817 86.8096 164.67 85.0555 167.364 85.9579L236.73 109.2L222.847 208.061C222.438 210.973 219.748 213.001 216.839 212.592L124.458 199.598Z" fill="#1F2933" fill-opacity="0.2"/>
</g>
<g filter="url(#filter5_bii_268_3421)">
<rect x="131.65" y="57.6565" width="101.384" height="126.177" rx="4.55661" transform="rotate(8 131.65 57.6565)" fill="url(#paint0_linear_268_3421)" fill-opacity="0.74"/>
</g>
<rect width="42.951" height="4.09988" rx="2.04994" transform="matrix(0.990274 0.139128 0.139218 -0.990262 141.494 79.2788)" fill="url(#paint1_linear_268_3421)" fill-opacity="0.5"/>
<rect width="21.6438" height="4.09988" rx="2.04994" transform="matrix(0.990274 0.139128 0.139218 -0.990262 128.842 169.269)" fill="url(#paint2_linear_268_3421)" fill-opacity="0.5"/>
<rect width="63.3242" height="4.09988" rx="2.04994" transform="matrix(0.990274 0.139128 0.139218 -0.990262 139.686 92.1345)" fill="url(#paint3_linear_268_3421)" fill-opacity="0.5"/>
<rect width="39.3079" height="4.09988" rx="2.04994" transform="matrix(0.990274 0.139128 0.139218 -0.990262 137.879 104.99)" fill="url(#paint4_linear_268_3421)" fill-opacity="0.5"/>
<rect width="75.6393" height="4.09988" rx="2.04994" transform="matrix(0.990274 0.139128 0.139218 -0.990262 136.072 117.846)" fill="url(#paint5_linear_268_3421)" fill-opacity="0.5"/>
<rect width="53.5398" height="4.09988" rx="2.04994" transform="matrix(0.990274 0.139128 0.139218 -0.990262 132.457 143.557)" fill="url(#paint6_linear_268_3421)" fill-opacity="0.5"/>
<rect width="34.2913" height="4.09988" rx="2.04994" transform="matrix(0.990274 0.139128 0.139218 -0.990262 134.264 130.701)" fill="url(#paint7_linear_268_3421)" fill-opacity="0.5"/>
<rect width="75.6393" height="4.09988" rx="2.04994" transform="matrix(0.990274 0.139128 0.139218 -0.990262 130.649 156.413)" fill="url(#paint8_linear_268_3421)" fill-opacity="0.5"/>
<g filter="url(#filter6_f_268_3421)">
<path fill-rule="evenodd" clip-rule="evenodd" d="M230.403 94.5775L222.005 152.771C211.034 155.784 198.758 153.167 190.01 144.861C176.972 132.482 176.707 112.155 189.419 99.4578C200.423 88.4663 217.544 86.7968 230.403 94.5775Z" fill="#1F2933" fill-opacity="0.08"/>
</g>
<rect width="6.27992" height="33.9857" transform="matrix(0.698199 -0.715903 0.716132 0.697965 234.849 136.343)" fill="#4D6072"/>
<ellipse opacity="0.9" cx="25.6738" cy="25.674" rx="25.6738" ry="25.674" transform="matrix(0.698199 -0.715903 0.716132 0.697965 181.286 115.605)" fill="url(#paint9_radial_268_3421)" fill-opacity="0.6"/>
<ellipse cx="25.6738" cy="25.674" rx="25.6738" ry="25.674" transform="matrix(0.698199 -0.715903 0.716132 0.697965 181.286 115.605)" fill="url(#paint10_radial_268_3421)" fill-opacity="0.6"/>
<path d="M238.675 135.687C250.024 124.05 249.788 105.419 238.147 94.0735C226.506 82.7279 207.868 82.9642 196.519 94.6013C185.17 106.238 185.406 124.87 197.047 136.215C208.688 147.561 227.325 147.324 238.675 135.687ZM235.219 97.075C245.202 106.804 245.405 122.782 235.672 132.761C225.939 142.74 209.957 142.943 199.974 133.214C189.992 123.484 189.789 107.507 199.522 97.5277C209.254 87.5483 225.237 87.3457 235.219 97.075Z" fill="white" stroke="white" stroke-width="0.868056"/>
<rect width="11.452" height="27.7258" rx="2.05047" transform="matrix(0.698199 -0.715903 0.716132 0.697965 239.692 144.521)" fill="#E5EAFA"/>
<path fill-rule="evenodd" clip-rule="evenodd" d="M250.809 139.364L249.156 137.753C248.346 136.963 247.047 136.979 246.257 137.79L241.124 143.053C240.333 143.864 240.35 145.161 241.161 145.952L242.813 147.562L250.809 139.364ZM264.411 152.621L266.075 154.243C266.886 155.033 266.903 156.331 266.112 157.142L260.979 162.405C260.189 163.215 258.89 163.232 258.079 162.441L256.416 160.82L264.411 152.621Z" fill="#BFCEE2"/>
<defs>
<filter id="filter0_f_268_3421" x="1.2362" y="0.355095" width="371.528" height="295.099" filterUnits="userSpaceOnUse" color-interpolation-filters="sRGB">
<feFlood flood-opacity="0" result="BackgroundImageFix"/>
<feBlend mode="normal" in="SourceGraphic" in2="BackgroundImageFix" result="shape"/>
<feGaussianBlur stdDeviation="43.4028" result="effect1_foregroundBlur_268_3421"/>
</filter>
<filter id="filter1_f_268_3421" x="-23.0695" y="35.9337" width="420.139" height="223.942" filterUnits="userSpaceOnUse" color-interpolation-filters="sRGB">
<feFlood flood-opacity="0" result="BackgroundImageFix"/>
<feBlend mode="normal" in="SourceGraphic" in2="BackgroundImageFix" result="shape"/>
<feGaussianBlur stdDeviation="43.4028" result="effect1_foregroundBlur_268_3421"/>
</filter>
<filter id="filter2_f_268_3421" x="27.2778" y="109.711" width="319.444" height="76.3871" filterUnits="userSpaceOnUse" color-interpolation-filters="sRGB">
<feFlood flood-opacity="0" result="BackgroundImageFix"/>
<feBlend mode="normal" in="SourceGraphic" in2="BackgroundImageFix" result="shape"/>
<feGaussianBlur stdDeviation="17.3611" result="effect1_foregroundBlur_268_3421"/>
</filter>
<filter id="filter3_bii_268_3421" x="112.139" y="73.5669" width="157.484" height="173.17" filterUnits="userSpaceOnUse" color-interpolation-filters="sRGB">
<feFlood flood-opacity="0" result="BackgroundImageFix"/>
<feGaussianBlur in="BackgroundImageFix" stdDeviation="6.07639"/>
<feComposite in2="SourceAlpha" operator="in" result="effect1_backgroundBlur_268_3421"/>
<feBlend mode="normal" in="SourceGraphic" in2="effect1_backgroundBlur_268_3421" result="shape"/>
<feColorMatrix in="SourceAlpha" type="matrix" values="0 0 0 0 0 0 0 0 0 0 0 0 0 0 0 0 0 0 127 0" result="hardAlpha"/>
<feOffset dx="0.868056" dy="1.73611"/>
<feGaussianBlur stdDeviation="0.868056"/>
<feComposite in2="hardAlpha" operator="arithmetic" k2="-1" k3="1"/>
<feColorMatrix type="matrix" values="0 0 0 0 1 0 0 0 0 1 0 0 0 0 1 0 0 0 0.08 0"/>
<feBlend mode="normal" in2="shape" result="effect2_innerShadow_268_3421"/>
<feColorMatrix in="SourceAlpha" type="matrix" values="0 0 0 0 0 0 0 0 0 0 0 0 0 0 0 0 0 0 127 0" result="hardAlpha"/>
<feOffset dx="-0.434028" dy="-0.868056"/>
<feGaussianBlur stdDeviation="1.73611"/>
<feComposite in2="hardAlpha" operator="arithmetic" k2="-1" k3="1"/>
<feColorMatrix type="matrix" values="0 0 0 0 0 0 0 0 0 0 0 0 0 0 0 0 0 0 0.2 0"/>
<feBlend mode="normal" in2="effect2_innerShadow_268_3421" result="effect3_innerShadow_268_3421"/>
</filter>
<filter id="filter4_f_268_3421" x="107.097" y="68.3584" width="146.994" height="161.647" filterUnits="userSpaceOnUse" color-interpolation-filters="sRGB">
<feFlood flood-opacity="0" result="BackgroundImageFix"/>
<feBlend mode="normal" in="SourceGraphic" in2="BackgroundImageFix" result="shape"/>
<feGaussianBlur stdDeviation="8.68056" result="effect1_foregroundBlur_268_3421"/>
</filter>
<filter id="filter5_bii_268_3421" x="111.206" y="54.7736" width="123.723" height="144.825" filterUnits="userSpaceOnUse" color-interpolation-filters="sRGB">
<feFlood flood-opacity="0" result="BackgroundImageFix"/>
<feGaussianBlur in="BackgroundImageFix" stdDeviation="1.73611"/>
<feComposite in2="SourceAlpha" operator="in" result="effect1_backgroundBlur_268_3421"/>
<feBlend mode="normal" in="SourceGraphic" in2="effect1_backgroundBlur_268_3421" result="shape"/>
<feColorMatrix in="SourceAlpha" type="matrix" values="0 0 0 0 0 0 0 0 0 0 0 0 0 0 0 0 0 0 127 0" result="hardAlpha"/>
<feOffset dx="-0.868056" dy="-0.868056"/>
<feGaussianBlur stdDeviation="0.868056"/>
<feComposite in2="hardAlpha" operator="arithmetic" k2="-1" k3="1"/>
<feColorMatrix type="matrix" values="0 0 0 0 0 0 0 0 0 0 0 0 0 0 0 0 0 0 0.15 0"/>
<feBlend mode="normal" in2="shape" result="effect2_innerShadow_268_3421"/>
<feColorMatrix in="SourceAlpha" type="matrix" values="0 0 0 0 0 0 0 0 0 0 0 0 0 0 0 0 0 0 127 0" result="hardAlpha"/>
<feOffset dx="0.868056" dy="0.868056"/>
<feGaussianBlur stdDeviation="1.73611"/>
<feComposite in2="hardAlpha" operator="arithmetic" k2="-1" k3="1"/>
<feColorMatrix type="matrix" values="0 0 0 0 1 0 0 0 0 1 0 0 0 0 1 0 0 0 0.25 0"/>
<feBlend mode="normal" in2="effect2_innerShadow_268_3421" result="effect3_innerShadow_268_3421"/>
</filter>
<filter id="filter6_f_268_3421" x="174.36" y="84.0682" width="61.7387" height="75.6066" filterUnits="userSpaceOnUse" color-interpolation-filters="sRGB">
<feFlood flood-opacity="0" result="BackgroundImageFix"/>
<feBlend mode="normal" in="SourceGraphic" in2="BackgroundImageFix" result="shape"/>
<feGaussianBlur stdDeviation="2.84788" result="effect1_foregroundBlur_268_3421"/>
</filter>
<linearGradient id="paint0_linear_268_3421" x1="233.728" y1="183.524" x2="171.317" y2="82.3024" gradientUnits="userSpaceOnUse">
<stop stop-color="white" stop-opacity="0.5"/>
<stop offset="1" stop-color="white"/>
</linearGradient>
<linearGradient id="paint1_linear_268_3421" x1="21.4755" y1="4.09988" x2="21.4755" y2="0" gradientUnits="userSpaceOnUse">
<stop stop-color="white"/>
<stop offset="1" stop-color="#F2F2F2"/>
</linearGradient>
<linearGradient id="paint2_linear_268_3421" x1="10.8219" y1="4.09988" x2="10.8219" y2="0" gradientUnits="userSpaceOnUse">
<stop stop-color="white"/>
<stop offset="1" stop-color="#F2F2F2"/>
</linearGradient>
<linearGradient id="paint3_linear_268_3421" x1="31.6621" y1="4.09988" x2="31.6621" y2="0" gradientUnits="userSpaceOnUse">
<stop stop-color="white"/>
<stop offset="1" stop-color="#F2F2F2"/>
</linearGradient>
<linearGradient id="paint4_linear_268_3421" x1="19.654" y1="4.09988" x2="19.654" y2="0" gradientUnits="userSpaceOnUse">
<stop stop-color="white"/>
<stop offset="1" stop-color="#F2F2F2"/>
</linearGradient>
<linearGradient id="paint5_linear_268_3421" x1="37.8196" y1="4.09988" x2="37.8196" y2="0" gradientUnits="userSpaceOnUse">
<stop stop-color="white"/>
<stop offset="1" stop-color="#F2F2F2"/>
</linearGradient>
<linearGradient id="paint6_linear_268_3421" x1="26.7699" y1="4.09988" x2="26.7699" y2="0" gradientUnits="userSpaceOnUse">
<stop stop-color="white"/>
<stop offset="1" stop-color="#F2F2F2"/>
</linearGradient>
<linearGradient id="paint7_linear_268_3421" x1="17.1457" y1="4.09988" x2="17.1457" y2="0" gradientUnits="userSpaceOnUse">
<stop stop-color="white"/>
<stop offset="1" stop-color="#F2F2F2"/>
</linearGradient>
<linearGradient id="paint8_linear_268_3421" x1="37.8196" y1="4.09988" x2="37.8196" y2="0" gradientUnits="userSpaceOnUse">
<stop stop-color="white"/>
<stop offset="1" stop-color="#F2F2F2"/>
</linearGradient>
<radialGradient id="paint9_radial_268_3421" cx="0" cy="0" r="1" gradientUnits="userSpaceOnUse" gradientTransform="translate(25.6738 25.674) rotate(180) scale(25.6738 25.674)">
<stop offset="0.645" stop-color="white" stop-opacity="0.9"/>
<stop offset="1" stop-color="white" stop-opacity="0.7"/>
</radialGradient>
<radialGradient id="paint10_radial_268_3421" cx="0" cy="0" r="1" gradientUnits="userSpaceOnUse" gradientTransform="translate(25.6738 25.674) rotate(180) scale(25.6738 25.674)">
<stop offset="0.645" stop-color="white"/>
<stop offset="1" stop-color="white" stop-opacity="0.7"/>
</radialGradient>
</defs>
</svg>
